<?xml version="1.0" standalone="no"?>
<!DOCTYPE svg PUBLIC "-//W3C//DTD SVG 20010904//EN"
 "http://www.w3.org/TR/2001/REC-SVG-20010904/DTD/svg10.dtd">
<svg version="1.0" xmlns="http://www.w3.org/2000/svg"
 width="1600.000000pt" height="1022.000000pt" viewBox="0 0 1600.000000 1022.000000"
 preserveAspectRatio="xMidYMid meet">

<g transform="translate(0.000000,1022.000000) scale(0.100000,-0.100000)"
fill="#000000" stroke="none">
<path d="M9866 8911 c-33 -106 -43 -171 -28 -171 19 0 24 -57 7 -83 -15 -23
-12 -55 6 -67 9 -6 41 -143 43 -185 2 -50 29 -43 50 15 10 27 16 56 13 63 -3
7 0 38 7 68 11 48 16 55 44 64 41 12 42 35 3 35 -35 0 -46 13 -26 30 15 12 11
35 -4 25 -5 -2 -12 28 -15 67 -6 55 -53 208 -70 226 -2 1 -15 -38 -30 -87z"/>
<path d="M10020 8690 c0 -5 6 -10 14 -10 8 0 23 -3 33 -7 16 -6 16 -5 4 10
-15 18 -51 23 -51 7z"/>
<path d="M10137 8593 c-4 -3 -7 -18 -6 -32 1 -26 1 -25 10 3 9 31 7 41 -4 29z"/>
<path d="M10131 8504 c0 -11 3 -14 6 -6 3 7 2 16 -1 19 -3 4 -6 -2 -5 -13z"/>
<path d="M10096 8358 c-3 -13 -5 -34 -5 -48 1 -15 5 -7 10 19 9 47 6 68 -5 29z"/>
<path d="M10063 8189 c-12 -52 -34 -154 -50 -227 -26 -123 -29 -133 -48 -127
-11 4 -33 9 -50 12 -54 8 -59 11 -45 28 18 21 6 29 -19 14 -29 -19 -32 -10
-20 55 12 69 9 121 -9 121 -15 0 -52 -86 -89 -205 -19 -62 -26 -106 -25 -163
0 -59 -3 -80 -14 -84 -8 -3 -12 -9 -9 -13 3 -5 0 -12 -6 -16 -8 -4 -9 -3 -5 4
9 15 1 15 -23 0 -28 -17 -122 6 -151 37 -80 86 -223 -17 -190 -136 16 -58 42
-74 119 -75 115 -1 159 -17 214 -79 27 -30 43 -55 38 -55 -6 0 -11 -4 -11 -9
0 -11 39 -26 59 -22 8 1 18 -3 23 -11 8 -10 11 -10 15 0 2 6 12 12 20 12 12 0
13 3 3 15 -6 8 -9 19 -5 25 10 16 55 -37 55 -65 0 -13 8 -30 18 -37 10 -7 21
-21 25 -30 3 -10 27 -33 53 -50 82 -58 83 -59 99 -143 17 -92 19 -118 6 -110
-5 3 -13 1 -16 -5 -5 -8 -12 -7 -22 2 -14 11 -15 10 -9 -8 6 -19 0 -23 -38
-36 -25 -8 -43 -11 -40 -7 3 5 -2 9 -10 9 -20 0 -31 -61 -16 -90 9 -16 17 -20
36 -16 17 5 24 2 24 -9 0 -8 -6 -15 -13 -15 -8 0 -24 -9 -37 -20 -17 -15 -26
-17 -36 -9 -11 9 -16 6 -23 -12 -4 -13 -7 -28 -6 -34 2 -5 6 -22 9 -36 4 -17
17 -31 36 -39 21 -9 28 -16 21 -23 -7 -7 -15 -6 -25 2 -11 10 -19 9 -35 -1
-12 -7 -21 -19 -21 -26 0 -25 21 -54 36 -48 19 7 37 -27 22 -42 -8 -8 -8 -15
2 -26 23 -29 5 -45 -44 -41 -25 2 -58 -1 -75 -8 -23 -8 -47 -7 -108 6 -43 9
-163 21 -268 28 -104 6 -203 14 -219 18 l-29 7 30 34 c23 27 29 40 23 56 -10
26 -38 38 -55 24 -9 -7 -16 -6 -25 5 -12 14 -25 14 -81 -1 -11 -3 -18 -19 -22
-45 -9 -66 -27 -73 -27 -11 l0 52 -32 0 c-18 0 -43 -3 -56 -6 -19 -6 -22 -11
-17 -35 5 -23 3 -29 -9 -29 -10 0 -19 12 -22 30 -5 21 -12 30 -25 30 -11 0
-19 -4 -19 -10 0 -6 -17 -7 -43 -4 -33 5 -47 2 -67 -14 -22 -18 -23 -22 -12
-46 15 -34 15 -69 0 -84 -9 -9 -8 -12 5 -12 35 0 15 -18 -20 -18 -40 -1 -251
-43 -343 -68 -105 -29 -266 -87 -370 -133 -154 -68 -263 -136 -352 -220 -79
-74 -128 -97 -128 -61 0 24 -39 55 -88 69 -36 10 -48 10 -74 -4 -17 -8 -39
-13 -48 -10 -10 3 -57 -2 -106 -12 -56 -11 -123 -16 -182 -14 -68 2 -109 -2
-149 -15 -53 -17 -57 -17 -88 0 -29 16 -44 17 -124 8 -73 -8 -100 -7 -134 5
-28 10 -75 14 -142 13 -55 -2 -135 3 -177 9 -46 7 -92 8 -115 3 -21 -5 -54 -5
-73 0 -19 5 -108 5 -197 2 -90 -4 -163 -3 -163 0 0 4 15 13 33 21 27 11 29 15
14 21 -10 3 -29 2 -43 -5 -33 -15 -67 -15 -58 1 7 11 3 10 -60 -9 -13 -4 -17
-2 -12 5 4 7 1 12 -8 12 -9 0 -16 7 -16 15 0 8 -9 15 -19 15 -11 0 -21 4 -23
9 -1 5 -23 12 -48 15 -42 6 -44 6 -26 -9 11 -8 26 -15 33 -15 7 0 13 -4 13
-10 0 -13 -10 -12 -40 5 -14 8 -37 14 -52 15 -19 0 -26 4 -22 14 4 10 -2 14
-18 14 -13 0 -50 5 -83 12 -33 7 -84 10 -113 7 -43 -5 -53 -3 -48 8 3 8 0 12
-7 9 -7 -2 -48 -1 -92 4 -48 5 -95 5 -117 -1 -29 -7 -46 -6 -72 7 -39 19 -90
21 -134 5 -22 -8 -63 -7 -144 1 -113 11 -147 22 -118 40 16 10 33 3 25 -11 -8
-12 17 -11 52 2 l28 11 -27 14 c-16 8 -28 19 -28 24 0 5 -8 11 -17 14 -10 3
-40 26 -68 51 -65 59 -137 95 -192 95 -24 0 -43 4 -43 10 0 22 -30 -5 -69 -64
-56 -85 -77 -163 -85 -326 -4 -74 -14 -149 -21 -167 -9 -22 -11 -41 -5 -60 28
-90 33 -114 24 -123 -5 -5 -66 -21 -136 -35 -128 -25 -254 -61 -334 -95 -43
-19 -63 -11 -24 10 29 15 25 33 -12 55 -40 22 -253 179 -400 292 -103 80 -109
83 -159 83 -34 0 -59 6 -70 16 -11 10 -27 14 -41 11 -46 -12 -58 -30 -66 -97
-7 -61 -9 -65 -32 -63 -106 8 -236 26 -243 33 -5 4 -6 17 -2 29 6 19 13 21 97
18 l90 -2 13 45 c7 25 16 53 20 63 7 17 2 18 -86 14 -122 -6 -155 -11 -172
-26 -20 -16 -37 -89 -36 -153 2 -134 48 -195 131 -176 24 6 51 15 61 20 25 13
77 0 84 -20 4 -10 11 -20 17 -24 16 -11 64 -10 87 2 16 9 19 7 19 -10 0 -18
-6 -20 -62 -20 -95 -1 -192 -11 -204 -21 -6 -5 -19 -44 -28 -86 -9 -43 -26
-117 -37 -166 -11 -48 -24 -129 -30 -180 -5 -50 -12 -105 -14 -122 -12 -86
-28 -305 -22 -311 14 -14 57 7 63 31 5 20 9 22 24 12 15 -9 23 -8 37 5 24 22
83 28 83 9 0 -14 -81 -153 -103 -179 -16 -17 -18 -25 -9 -34 14 -14 97 3 157
32 63 31 187 138 262 225 77 91 59 82 -32 -15 -88 -95 -124 -127 -156 -141
-38 -15 -48 -5 -26 29 10 15 25 42 33 60 75 168 338 421 594 572 69 41 215
100 246 100 24 0 25 -2 19 -47 -4 -40 -3 -44 6 -26 9 17 18 21 48 17 114 -15
110 -11 86 -81 -13 -39 -11 -87 4 -65 3 5 21 12 39 15 l33 7 -5 -48 c-3 -26
-6 -49 -7 -52 -1 -3 -1 -8 0 -13 2 -10 -37 -9 -43 2 -4 5 -29 12 -56 16 -27 4
-52 11 -56 16 -3 5 -12 9 -21 9 -28 0 7 -31 62 -55 63 -28 130 -38 155 -25 11
6 31 31 46 55 31 54 59 58 125 20 39 -22 56 -25 141 -25 68 0 99 4 105 13 13
21 138 40 295 44 l146 4 149 -51 c81 -28 154 -52 160 -55 28 -10 -1 -33 -47
-39 -27 -4 -52 -10 -54 -15 -3 -5 -32 -3 -63 5 -214 48 -521 37 -761 -27 -365
-97 -706 -320 -916 -599 -107 -142 -184 -285 -260 -481 -102 -263 -124 -646
-55 -924 11 -44 25 -100 31 -125 5 -25 14 -49 19 -55 5 -5 9 -16 9 -25 0 -9 9
-33 20 -55 11 -22 20 -44 20 -50 0 -18 81 -165 91 -165 5 0 9 -9 9 -20 0 -25
80 -148 102 -155 9 -3 19 -16 22 -28 7 -30 244 -273 274 -282 12 -3 26 -15 32
-25 12 -22 124 -100 145 -100 8 0 19 -8 24 -19 6 -10 25 -24 43 -32 18 -7 48
-24 67 -36 19 -13 41 -23 49 -23 9 0 23 -6 31 -14 9 -7 50 -26 91 -41 41 -15
86 -33 100 -40 70 -36 178 -58 440 -91 30 -3 152 -8 270 -9 167 -2 223 0 249
11 21 9 38 11 45 5 7 -6 18 -4 30 5 10 7 22 11 27 9 4 -3 10 -1 14 5 3 5 -2
10 -12 10 -14 0 -15 2 -4 9 7 5 11 13 8 18 -3 5 20 20 51 33 111 45 287 131
351 172 182 114 338 253 451 402 65 86 140 202 140 216 0 8 -126 30 -172 30
-19 0 -38 4 -43 9 -17 15 -90 28 -169 30 -42 1 -87 6 -99 11 -22 9 -22 9 2 9
35 1 20 11 -25 16 -21 3 -91 15 -154 26 -63 11 -216 35 -340 54 -328 50 -482
74 -509 81 -14 3 -92 16 -174 30 -82 13 -229 40 -326 60 -97 19 -195 36 -217
37 -23 1 -41 4 -39 7 2 3 -23 5 -56 5 -32 0 -55 -3 -51 -7 4 -3 61 -18 127
-33 66 -14 130 -28 143 -30 20 -5 22 -11 22 -60 0 -30 5 -55 10 -55 6 0 10 -7
10 -15 0 -8 -5 -15 -11 -15 -6 0 -9 -7 -6 -15 4 -8 2 -17 -4 -21 -6 -3 -15
-17 -20 -31 -7 -19 -15 -24 -30 -20 -13 3 -22 0 -26 -10 -3 -8 -20 -21 -37
-29 l-31 -13 30 -1 c17 0 36 -5 42 -11 16 -16 36 -1 30 22 -7 25 9 24 23 -1
14 -25 37 -25 75 0 17 11 39 20 50 20 12 0 26 5 32 11 17 17 80 28 92 16 8 -8
11 -8 11 1 0 7 6 12 13 12 7 0 30 9 52 21 21 12 55 21 74 21 20 0 45 4 56 9
11 4 38 13 59 18 38 10 41 9 80 -29 22 -22 45 -40 51 -40 6 0 21 -18 34 -40
25 -46 24 -45 81 -25 35 12 46 13 58 3 13 -11 15 -10 9 4 -8 22 11 36 61 44
23 4 45 11 48 15 3 5 14 9 25 9 10 0 19 5 19 10 0 13 64 13 155 0 137 -19 134
-18 139 -53 17 -112 17 -115 -4 -122 -26 -8 -45 7 -67 52 -12 25 -21 33 -37
31 -31 -5 -30 -32 3 -68 40 -45 45 -77 13 -85 -14 -3 -33 0 -48 10 -13 8 -31
15 -41 15 -10 0 -27 7 -37 15 -11 8 -25 15 -30 15 -6 0 1 -8 15 -18 68 -45 99
-67 99 -72 0 -3 -18 -15 -40 -28 -46 -26 -81 -22 -118 15 -12 12 -27 23 -31
23 -5 0 -39 32 -77 71 -93 97 -107 109 -112 105 -7 -8 23 -44 61 -74 51 -41
157 -160 157 -176 0 -8 -21 -21 -47 -30 -66 -22 -75 -21 -71 11 4 34 -15 43
-22 12 -9 -36 -54 -63 -107 -63 -44 -1 -48 1 -47 22 1 25 -14 30 -23 7 -7 -20
-55 -45 -86 -45 -36 0 -87 29 -97 56 -5 13 -15 24 -21 24 -7 0 -5 -9 5 -25 9
-14 14 -30 11 -35 -9 -15 -97 1 -124 22 -16 12 -28 15 -36 8 -7 -6 -33 -2 -77
12 l-67 22 16 30 15 31 -21 -23 c-13 -13 -27 -19 -34 -15 -7 5 -19 8 -27 9
-21 1 -110 43 -110 52 0 5 5 13 11 19 9 9 7 11 -8 7 -12 -3 -24 -1 -27 5 -4 6
-17 11 -30 11 -22 0 -96 62 -96 80 0 5 -6 7 -13 4 -7 -2 -32 16 -57 41 -36 36
-44 52 -44 81 0 21 -2 32 -4 26 -9 -28 -47 -11 -74 32 -33 51 -34 56 -9 56 11
0 23 5 26 10 4 7 -3 9 -19 6 -16 -3 -31 1 -39 10 -6 8 -19 23 -28 32 -9 9 -26
36 -38 59 -23 47 -19 55 35 55 19 0 37 4 40 9 3 5 0 9 -6 9 -6 0 -8 5 -4 12 4
7 3 8 -4 4 -6 -4 -24 1 -39 11 l-28 17 19 -22 c19 -22 19 -22 -1 -22 -27 0
-61 39 -92 106 -5 12 -17 24 -25 27 -11 4 -16 19 -16 48 0 22 3 39 8 37 104
-50 136 -61 202 -68 41 -5 149 -24 240 -43 91 -20 197 -42 235 -51 39 -8 115
-19 170 -26 55 -6 152 -20 215 -31 240 -42 901 -151 1055 -174 88 -13 210 -33
270 -45 352 -66 704 -116 685 -97 -3 3 -61 19 -130 35 -180 45 -502 139 -509
149 -18 26 -208 77 -283 76 -21 -1 -38 2 -39 5 0 4 -2 19 -4 35 -2 15 1 27 6
27 5 0 9 -4 9 -10 0 -5 5 -10 10 -10 6 0 10 7 10 15 0 8 -7 15 -15 15 -8 0
-15 9 -15 19 0 14 5 18 20 14 16 -4 20 0 20 21 0 30 6 31 80 11 30 -8 56 -13
57 -11 2 2 -21 15 -52 30 -120 57 -41 42 159 -30 81 -30 162 -62 180 -72 45
-27 171 -66 190 -59 22 9 20 22 -4 24 -11 1 -35 9 -52 17 -17 9 -36 16 -42 16
-6 0 -22 13 -36 29 -19 22 -69 47 -210 101 -102 40 -224 90 -271 111 -48 22
-91 39 -96 39 -5 0 -28 9 -51 20 -22 11 -45 20 -50 20 -5 0 -40 13 -78 28 -38
16 -86 32 -107 36 -22 4 -37 13 -37 21 0 8 -4 15 -10 15 -5 0 -7 -6 -4 -14 4
-9 -3 -13 -22 -13 -16 0 -28 6 -31 16 -5 19 -10 21 -223 97 -85 31 -191 69
-235 86 -73 28 -311 108 -410 137 -22 6 -60 15 -85 19 -36 6 -46 12 -48 30 -2
12 -8 22 -14 22 -5 0 -8 -6 -5 -13 9 -25 -20 -50 -50 -43 -44 10 -47 11 -62
20 -8 5 -16 4 -22 -5 -4 -7 -11 -10 -15 -7 -9 10 5 78 16 78 6 0 10 5 10 10 0
6 -5 10 -11 10 -5 0 -29 8 -52 19 -49 22 -134 57 -160 65 -10 3 -15 10 -12 16
3 5 1 10 -4 10 -6 0 -11 5 -11 10 0 6 11 10 25 10 14 0 25 -5 25 -11 0 -5 4
-8 9 -5 12 8 102 -20 157 -48 34 -17 57 -22 92 -18 49 4 70 -2 267 -73 193
-71 270 -96 289 -93 10 2 -72 36 -182 77 -241 88 -242 89 -107 155 49 25 102
48 118 52 15 3 27 11 27 17 0 8 4 7 11 0 7 -7 25 -9 40 -6 21 4 29 2 29 -8 0
-11 2 -11 9 1 10 15 89 22 97 8 3 -4 -2 -8 -10 -8 -9 0 -16 -7 -16 -15 0 -9 9
-15 25 -15 14 0 26 -3 26 -7 1 -5 2 -32 4 -62 2 -46 0 -51 -11 -36 -7 10 -20
15 -28 12 -12 -5 -15 1 -13 26 1 18 6 35 10 38 4 3 -9 6 -29 7 -36 1 -36 1
-32 -33 3 -30 1 -34 -13 -30 -23 8 -34 -11 -13 -23 15 -8 14 -10 -2 -16 -17
-7 -15 -9 11 -21 20 -9 24 -14 12 -14 -26 -1 -11 -19 30 -36 29 -12 38 -13 45
-3 5 9 8 7 8 -8 0 -21 -2 -20 -105 11 -58 17 -108 35 -112 38 -3 4 -13 7 -22
7 -23 -1 5 -16 72 -40 28 -10 84 -31 122 -45 39 -15 106 -40 150 -55 162 -58
653 -241 804 -301 48 -19 82 -27 99 -22 17 4 29 1 36 -9 11 -15 53 -36 111
-56 94 -33 225 -85 222 -89 -3 -2 -15 1 -28 6 -37 15 -326 117 -409 144 -41
14 -147 52 -235 86 -152 59 -281 107 -460 171 -115 41 -124 44 -95 27 14 -8
113 -47 220 -87 107 -39 233 -86 280 -105 72 -28 251 -95 299 -111 8 -2 12 -7
9 -9 -5 -5 -30 4 -223 74 -108 40 -130 41 -123 5 2 -13 57 -37 218 -96 118
-43 306 -115 418 -160 147 -59 206 -78 214 -70 21 21 -2 39 -96 77 -53 21 -95
40 -92 42 2 2 77 -26 167 -63 201 -82 359 -139 422 -155 28 -6 55 -21 66 -35
10 -13 23 -24 29 -24 5 0 15 -7 22 -15 16 -19 11 -19 -28 0 -32 17 -281 105
-294 105 -5 0 -8 -9 -8 -20 0 -12 -10 -34 -22 -50 -12 -16 -20 -32 -17 -34 10
-9 404 -136 549 -176 45 -13 114 -20 220 -23 100 -3 174 -10 210 -21 69 -20
405 -23 460 -4 24 8 189 14 525 18 534 8 564 11 761 76 357 118 663 383 831
718 20 39 42 75 49 79 8 4 14 12 14 16 0 14 64 106 74 106 26 0 66 145 66 239
0 86 -45 228 -94 295 -19 28 -29 48 -22 45 9 -3 18 7 26 28 63 172 133 386
176 538 36 126 54 170 69 170 7 0 26 -7 41 -15 37 -19 53 -19 60 0 4 8 12 15
20 15 7 0 18 8 23 18 9 17 17 17 93 7 l83 -10 7 -60 c13 -117 84 -256 168
-328 46 -39 61 -40 108 -10 13 8 26 12 29 9 5 -5 -38 -54 -140 -161 -40 -41
-136 -169 -177 -235 -19 -30 -46 -69 -61 -87 -26 -30 -58 -137 -45 -150 7 -7
-22 -63 -32 -63 -10 0 -44 -101 -72 -212 -10 -43 -25 -88 -31 -100 -8 -13 -15
-75 -17 -145 -2 -68 -7 -123 -11 -123 -4 0 -12 5 -18 11 -8 8 -13 8 -18 0 -3
-7 4 -20 17 -31 19 -16 20 -19 6 -20 -9 0 -20 -5 -23 -10 -12 -20 14 -36 62
-39 25 -1 51 -5 55 -7 5 -3 15 -1 22 5 9 8 21 7 42 -3 24 -12 155 -16 724 -22
382 -4 726 -7 765 -8 55 -1 70 2 71 14 2 34 4 40 13 40 5 0 12 -13 16 -30 5
-21 13 -30 26 -30 10 0 19 -5 19 -10 0 -17 -25 -22 -55 -10 -43 16 -53 -2 -21
-40 26 -32 27 -54 1 -44 -7 3 -27 -4 -44 -17 -30 -22 -30 -22 -58 -3 l-28 19
43 5 c52 8 66 21 58 53 -5 22 -11 25 -51 25 -31 -1 -45 -5 -45 -15 0 -20 -17
-15 -23 7 -3 11 -12 20 -21 20 -19 0 -21 -11 -4 -28 9 -9 5 -12 -19 -12 -23 0
-33 6 -38 20 -10 31 -88 28 -132 -6 -35 -26 -44 -26 -17 1 9 9 15 18 13 20 -7
7 -260 11 -264 4 -7 -10 26 -113 38 -121 26 -16 -26 -20 -53 -4 -16 9 -38 16
-49 16 -12 0 -21 5 -21 10 0 6 -7 10 -16 10 -22 0 -137 57 -163 81 -21 19 -91
27 -91 10 0 -12 123 -93 183 -120 63 -29 211 -81 230 -81 8 0 32 -21 53 -47
81 -100 139 -140 156 -109 5 9 16 16 24 16 8 0 31 8 52 19 69 35 87 32 22 -3
-35 -20 -69 -36 -76 -36 -7 0 -14 -6 -17 -14 -7 -18 48 -52 98 -62 31 -5 35
-4 35 14 0 38 19 33 22 -5 3 -35 6 -39 43 -50 101 -30 132 -37 156 -35 17 2
29 -3 33 -14 5 -13 9 -14 21 -4 10 8 40 11 95 7 44 -2 80 -2 80 2 0 3 21 6 48
6 30 0 68 10 106 28 l59 27 -28 30 c-16 16 -47 42 -69 57 -23 15 -45 34 -49
40 -15 24 -67 45 -81 34 -17 -14 -29 -1 -14 16 6 7 8 16 4 20 -5 5 -59 16
-139 27 -10 1 -22 7 -25 12 -4 5 -19 15 -34 21 -29 13 -38 32 -15 34 6 0 21 2
31 4 10 2 29 -3 41 -11 28 -18 44 -2 21 21 -17 18 -30 54 -22 62 12 13 58 11
63 -3 6 -17 13 -17 48 -4 25 10 25 10 9 42 -9 18 -25 40 -35 48 -10 8 -20 26
-22 39 -2 14 -9 27 -15 29 -7 2 -12 8 -12 13 0 5 3 8 8 6 14 -4 12 13 -4 44
l-16 31 23 -16 c31 -21 37 -20 37 8 0 21 -5 24 -35 24 -20 0 -37 -6 -40 -14
-12 -31 -22 -11 -18 38 3 38 -1 60 -14 83 -10 16 -22 41 -26 55 -5 14 -18 42
-31 62 -20 31 -30 37 -66 41 l-43 4 43 1 c42 2 55 15 26 26 -8 3 -12 11 -9 17
4 6 -2 17 -14 25 -12 8 -21 21 -21 27 0 7 4 6 10 -3 6 -9 10 -10 10 -3 0 7 -6
16 -14 20 -7 4 -25 31 -41 58 -15 28 -33 57 -41 66 -15 17 -18 35 -6 42 4 2 2
3 -5 1 -6 -1 -19 6 -29 17 -11 12 -30 19 -54 19 -21 0 -43 7 -50 15 -7 8 -18
15 -25 15 -7 0 -48 -37 -91 -83 -82 -86 -154 -195 -154 -234 0 -13 -4 -23 -10
-23 -16 0 -12 -32 8 -53 17 -19 16 -19 -5 -6 -12 7 -25 11 -28 8 -3 -3 -10
-32 -15 -65 -19 -110 -12 -101 -92 -115 -57 -10 -67 -14 -48 -19 25 -7 -47
-16 -180 -23 -30 -2 25 -4 123 -5 l177 -2 0 -33 c0 -68 6 -70 211 -70 224 0
239 1 239 13 0 6 -5 10 -12 10 -6 0 -1 11 12 25 13 14 28 25 34 25 6 0 0 -9
-13 -19 -23 -18 -24 -20 -7 -36 12 -12 37 -19 78 -21 33 -2 64 -6 67 -10 3 -4
-169 -4 -384 0 -214 3 -451 7 -525 8 -74 1 -117 3 -95 5 59 6 71 20 41 48 -21
19 -23 29 -19 71 7 71 19 92 50 86 19 -4 24 -1 21 9 -3 8 -15 13 -26 11 -13
-2 -25 3 -28 12 -8 20 14 114 32 143 8 12 14 34 14 47 0 26 48 138 62 144 4 2
12 21 18 41 15 55 52 106 78 105 17 0 19 3 11 18 -8 14 -2 28 23 62 42 57 86
81 109 60 8 -8 21 -14 27 -14 21 0 13 20 -13 32 -36 16 -31 31 27 78 51 41 52
41 68 21 11 -15 19 -18 30 -11 12 8 12 10 1 10 -8 0 -12 3 -8 6 3 3 20 -4 37
-16 25 -17 30 -28 26 -45 -4 -14 -1 -25 7 -28 9 -3 9 -11 0 -38 -16 -41 -4
-56 51 -69 38 -8 58 3 31 18 -18 9 -31 67 -17 76 5 3 24 -27 43 -66 42 -88
111 -139 121 -90 3 13 9 8 23 -18 10 -19 20 -30 22 -23 2 7 -22 63 -53 125
-71 139 -94 186 -175 358 -34 74 -69 142 -76 151 -7 8 -13 21 -13 28 0 16 48
33 71 26 31 -10 58 3 52 25 -6 23 22 39 39 22 9 -9 7 -17 -7 -32 -15 -17 -16
-20 -3 -25 8 -3 21 -5 29 -3 8 2 15 -7 17 -20 2 -12 7 -20 12 -17 13 8 29 -20
35 -61 4 -39 24 -94 52 -146 13 -25 12 -28 -1 -28 -9 0 -16 9 -16 20 0 11 -4
20 -8 20 -5 0 -17 17 -28 38 -10 20 -26 47 -36 60 -9 12 -22 45 -29 72 -15 57
-30 60 -43 8 -8 -32 -3 -48 58 -169 36 -74 86 -170 109 -214 24 -44 114 -216
200 -382 87 -166 165 -307 173 -313 8 -7 14 -19 14 -27 0 -7 7 -25 16 -38 14
-21 24 -25 64 -25 53 0 62 -7 80 -65 7 -22 17 -46 23 -52 5 -7 5 -13 1 -13 -5
0 -14 -16 -20 -35 -7 -21 -7 -35 -2 -35 6 0 12 9 15 20 8 30 46 25 66 -9 19
-33 22 -45 7 -36 -16 10 -12 -11 5 -25 12 -10 16 -9 21 4 10 26 42 20 42 -9 0
-14 -3 -25 -7 -25 -4 0 -7 -9 -7 -20 0 -22 4 -23 162 -4 80 9 83 15 37 71 -23
26 -54 60 -70 76 l-29 27 -38 -40 c-20 -22 -41 -40 -45 -40 -5 0 -9 25 -9 55
0 41 3 55 14 55 8 0 14 -9 14 -20 0 -11 4 -20 10 -20 5 0 15 9 22 20 7 11 20
20 29 20 9 0 22 7 29 15 7 8 9 15 5 15 -4 0 19 20 51 44 81 60 177 163 170
181 -3 9 -20 16 -38 16 -18 1 -85 5 -148 9 l-115 7 148 1 148 2 -7 23 c-22 71
-60 149 -104 209 -54 74 -54 67 -11 161 68 150 111 248 111 252 0 15 54 85 65
85 20 0 113 -77 120 -100 8 -24 25 -27 25 -4 0 25 25 10 29 -17 1 -13 19 -41
38 -62 21 -24 32 -45 29 -55 -4 -12 4 -23 25 -35 28 -16 30 -19 18 -38 -12
-18 -39 -36 -89 -59 -8 -4 -16 -17 -18 -29 -4 -27 30 -29 55 -2 10 10 33 26
52 36 33 17 35 17 48 -1 7 -10 13 -21 13 -26 0 -4 5 -8 10 -8 6 0 10 7 10 15
0 9 6 12 15 8 18 -6 15 -39 -3 -36 -6 2 0 -21 13 -50 26 -55 31 -92 15 -102
-15 -10 -12 -28 4 -22 21 8 32 -10 50 -77 9 -38 12 -64 6 -71 -6 -8 -5 -18 5
-31 8 -11 15 -14 15 -6 0 17 30 15 30 -3 0 -8 -7 -15 -15 -15 -13 0 -16 -13
-14 -67 5 -199 -19 -392 -53 -430 -13 -14 -18 -28 -13 -42 4 -13 -3 -42 -20
-78 -16 -35 -22 -59 -15 -61 5 -2 7 -8 4 -13 -4 -6 -11 -6 -19 1 -9 8 -15 8
-20 0 -3 -5 1 -13 9 -16 9 -3 16 -10 16 -16 0 -5 -4 -7 -10 -3 -5 3 -25 -19
-44 -49 -19 -30 -44 -60 -55 -66 -12 -6 -21 -19 -21 -28 0 -10 -13 -34 -29
-53 -21 -25 -28 -43 -24 -57 3 -13 1 -22 -6 -22 -6 0 -11 -7 -11 -15 0 -8 -5
-15 -11 -15 -7 0 -9 11 -5 30 4 20 2 29 -5 25 -5 -4 -16 -1 -24 5 -22 18 -41
7 -21 -12 9 -9 16 -21 16 -26 0 -16 -91 -92 -110 -92 -10 0 -25 -11 -34 -25
-9 -14 -34 -36 -55 -49 -21 -13 -45 -31 -54 -40 -15 -15 -17 -15 -26 1 -5 10
-13 14 -17 10 -5 -4 -3 -17 4 -27 17 -28 15 -31 -11 -25 -13 4 -43 -3 -71 -14
-62 -27 -74 -26 -88 4 -15 33 -28 32 -28 -2 0 -16 -4 -33 -8 -39 -9 -15 -77
-34 -119 -34 -18 0 -33 -4 -33 -10 0 -5 7 -7 15 -4 10 4 15 0 15 -10 0 -14 -4
-15 -20 -6 -14 7 -42 8 -86 2 -57 -8 -68 -6 -90 10 -13 11 -24 28 -24 39 0 10
-5 19 -11 19 -6 0 -8 -11 -4 -28 4 -19 1 -33 -8 -40 -16 -13 -87 -9 -129 7
-15 6 -35 8 -43 5 -8 -4 -45 -1 -81 6 -50 10 -68 17 -71 31 -6 20 -28 25 -38
9 -9 -14 -86 18 -112 46 -12 13 -28 21 -36 18 -17 -6 -105 36 -132 62 -12 12
-15 26 -10 51 5 26 3 33 -10 33 -8 0 -15 -9 -15 -20 0 -13 -7 -20 -20 -20 -26
0 -90 57 -90 81 0 13 -7 19 -22 19 -28 0 -129 106 -121 127 4 9 -2 16 -15 20
-26 6 -72 75 -72 107 0 14 7 29 16 34 13 7 14 11 3 17 -7 5 -14 4 -17 -3 -2
-7 -11 -12 -21 -12 -11 0 -26 21 -44 63 -33 75 -35 107 -7 114 11 3 20 12 20
19 0 16 -16 19 -25 4 -11 -18 -35 -10 -45 16 -6 14 -13 43 -16 65 -5 32 -4 39
10 39 22 0 20 9 -9 32 -18 14 -25 29 -25 54 0 20 -5 34 -12 35 -7 0 -123 2
-258 4 -135 3 -273 7 -306 10 l-61 5 3 -37 c2 -21 5 -71 8 -111 5 -68 31 -162
45 -162 3 0 5 61 3 135 -2 109 0 135 11 135 9 0 22 -42 41 -137 15 -75 30
-141 32 -145 3 -4 12 -8 21 -8 13 0 15 9 11 51 -3 29 -2 45 3 37 5 -7 9 -32 9
-54 0 -23 11 -76 25 -118 148 -454 481 -815 933 -1010 62 -27 112 -52 112 -56
0 -4 -21 -13 -47 -20 -57 -15 -72 -26 -47 -33 123 -36 246 -45 684 -52 410 -6
527 0 522 26 -1 9 7 24 18 34 11 10 20 26 20 36 0 12 34 33 118 74 386 186
666 449 841 791 254 493 254 1035 0 1522 -108 207 -283 413 -474 557 -44 33
-92 73 -107 88 -30 30 -41 33 -56 14 -6 -7 -44 -84 -85 -172 -41 -88 -80 -159
-86 -158 -5 2 -8 -4 -5 -12 5 -11 -117 -299 -133 -315 -9 -9 9 43 32 95 91
196 61 153 -54 -80 -55 -113 -105 -205 -110 -205 -5 0 -29 11 -52 25 -24 13
-69 32 -99 41 -30 10 -59 21 -64 26 -14 11 -56 10 -56 -2 0 -5 3 -10 8 -10 4
0 21 -11 37 -24 l30 -25 -44 15 c-35 12 -46 12 -52 2 -4 -6 -6 -15 -3 -20 6
-9 -18 -48 -28 -48 -5 0 -8 6 -8 14 0 8 -4 17 -9 21 -6 3 -10 -12 -9 -35 0
-22 4 -40 9 -40 4 0 11 -9 14 -20 4 -11 11 -18 16 -14 6 3 23 0 40 -6 34 -14
39 -45 9 -55 -24 -8 -40 1 -40 21 0 8 -4 14 -10 14 -14 0 -13 -5 10 -52 11
-23 20 -50 20 -59 0 -10 5 -21 10 -24 16 -10 12 -25 -5 -19 -8 4 -15 1 -15 -5
0 -6 9 -11 20 -11 11 0 20 -4 20 -9 0 -15 81 -63 97 -57 11 5 13 1 8 -17 -4
-12 -14 -32 -21 -45 -8 -12 -12 -27 -9 -32 11 -18 -5 -32 -21 -19 -12 10 -13
9 -8 -5 3 -9 17 -16 30 -16 13 0 24 -4 24 -10 0 -5 7 -10 16 -10 8 0 12 -5 9
-10 -4 -6 -11 -8 -16 -4 -5 3 -16 1 -23 -5 -19 -16 -46 -3 -46 21 0 27 -18 58
-35 58 -7 0 -26 11 -42 24 -15 13 -38 26 -51 30 -20 7 -22 12 -16 42 5 26 3
34 -9 34 -16 0 -38 22 -41 42 -1 7 -5 19 -9 25 -8 13 3 16 70 15 39 0 46 8 37
43 -5 19 -12 25 -25 22 -20 -5 -34 19 -17 29 6 4 -4 13 -22 20 -31 13 -32 15
-16 32 15 17 15 21 -4 58 -19 38 -19 38 -20 11 0 -16 -4 -26 -9 -23 -5 4 -11
2 -13 -2 -4 -11 -68 -24 -68 -14 0 5 5 13 11 19 11 11 48 107 49 126 0 4 -4 7
-10 7 -5 0 -10 -5 -10 -10 0 -22 -43 -100 -55 -100 -7 0 -25 21 -40 47 -20 36
-25 56 -20 80 7 38 25 44 26 11 1 -19 2 -18 9 6 11 35 6 46 -21 46 -10 0 -19
4 -19 9 0 5 -8 12 -17 14 -11 3 -7 5 10 6 15 0 27 6 27 12 0 8 -15 10 -45 7
l-45 -6 -28 61 -29 61 23 24 c21 24 23 52 2 52 -6 0 -8 -7 -5 -14 4 -9 -2 -17
-14 -21 -27 -9 -35 0 -19 20 10 12 10 15 -4 15 -8 0 -23 14 -32 31 l-16 32 37
-6 36 -6 -20 35 c-12 19 -21 39 -21 43 0 14 41 20 66 11 25 -10 30 -4 15 18
-9 15 -81 7 -81 -9 0 -5 -3 -9 -7 -9 -19 1 -34 19 -43 51 l-9 34 19 -24 c22
-26 28 -26 165 4 98 22 336 25 445 6 87 -15 256 -67 265 -81 10 -17 -25 -11
-99 16 -39 14 -111 32 -161 40 -106 16 -248 19 -225 4 8 -5 29 -10 45 -10 45
0 57 -12 49 -45 -5 -20 -4 -26 5 -21 6 4 11 13 11 21 0 7 7 16 16 19 8 3 12
10 9 16 -3 5 1 10 9 10 8 0 17 -4 20 -9 4 -5 25 -12 47 -16 23 -4 49 -15 60
-26 13 -13 27 -16 51 -13 20 3 40 0 49 -8 15 -12 7 -30 -76 -180 -50 -92 -98
-174 -105 -183 -11 -13 -10 -18 6 -30 10 -8 22 -15 26 -15 3 0 37 55 74 122
37 68 85 153 106 190 l39 68 25 -16 c21 -14 24 -14 18 -1 -9 25 13 29 29 4 8
-12 28 -30 45 -39 29 -18 30 -18 46 7 10 15 22 23 28 19 7 -5 9 -2 5 9 -7 19
11 79 23 72 4 -2 10 10 13 28 6 38 78 198 86 192 3 -1 7 7 7 18 1 12 11 47 23
77 26 69 27 94 2 61 l-18 -24 -124 41 c-381 126 -738 145 -1093 56 -222 -55
-173 -32 104 51 107 32 197 60 200 63 3 2 -24 2 -60 -2 -140 -15 -419 -103
-404 -127 3 -5 -2 -9 -11 -9 -13 0 -15 6 -10 30 6 25 3 31 -16 39 -21 7 -20 9
13 15 37 7 74 35 47 37 -33 1 115 49 216 69 61 12 115 26 120 30 6 5 16 5 23
1 17 -10 63 -1 56 11 -3 5 -12 7 -20 4 -8 -3 -13 -2 -13 2 3 19 -2 23 -15 13
-18 -15 -42 -5 -51 22 -6 17 -8 19 -12 6 -6 -24 -56 -45 -162 -69 -52 -12
-119 -31 -150 -42 -31 -11 -68 -22 -82 -25 -30 -5 -48 12 -30 30 18 18 12 36
-14 43 -23 6 -25 10 -19 39 5 30 3 34 -18 37 -19 2 -23 8 -20 36 2 27 -2 34
-23 42 -27 10 -32 29 -13 48 10 10 10 15 -2 22 -8 5 -23 10 -32 10 -21 0 -23
13 -6 40 10 16 8 22 -16 41 -21 17 -26 27 -21 46 5 20 1 26 -25 34 -26 9 -29
15 -27 42 2 26 -2 33 -20 35 -25 4 -31 30 -10 51 9 10 9 15 0 18 -18 6 -96
131 -89 142 4 5 0 13 -7 18 -8 4 -24 27 -36 51 -12 23 -26 42 -31 42 -5 0 -14
9 -21 21 -18 35 2 44 58 25 61 -20 180 -38 202 -31 9 3 25 18 35 34 11 16 34
36 50 44 30 15 30 16 6 16 -23 1 -23 2 -8 18 16 15 16 18 -7 39 -20 19 -25 33
-25 72 0 77 10 111 34 117 11 4 30 10 41 15 11 5 31 11 45 14 14 3 42 20 63
38 35 30 38 37 39 85 0 28 -3 60 -6 71 -7 20 -7 20 -33 -4 -22 -20 -34 -23
-79 -21 -30 2 -57 6 -60 10 -14 14 6 35 40 41 46 9 50 17 31 64 -13 31 -20 39
-36 35 -10 -3 -19 -10 -19 -15 0 -6 -7 -8 -15 -4 -12 4 -15 -3 -15 -29 0 -29
-4 -36 -25 -41 -16 -4 -25 -14 -26 -28 -1 -20 -2 -20 -6 -1 -2 11 -11 37 -20
57 -11 27 -20 35 -32 30 -14 -5 -14 -4 -1 13 8 10 14 26 12 36 -2 13 5 20 22
25 32 8 33 25 6 154 -11 52 -20 99 -20 104 0 4 20 5 45 2 30 -5 45 -4 45 4 0
18 -47 29 -148 35 -53 3 -98 10 -100 14 -4 12 -52 -33 -52 -48 0 -7 -23 -22
-51 -33 -40 -17 -51 -27 -56 -49 -3 -15 -11 -30 -19 -33 -8 -3 -14 -19 -14
-35 0 -38 -9 -61 -24 -61 -13 0 -16 136 -3 156 3 6 19 14 34 17 19 4 34 17 48
44 11 21 27 45 36 53 21 20 32 57 19 65 -5 3 -10 25 -10 49 0 23 -3 46 -6 49
-10 9 -45 -18 -58 -45 -6 -12 -20 -24 -30 -26 -16 -3 -18 0 -12 23 4 17 3 24
-4 20 -5 -3 -10 -1 -10 5 0 7 -9 19 -20 28 -21 17 -21 17 11 62 18 25 45 62
61 82 32 42 35 58 11 58 -10 0 -47 18 -83 40 -36 22 -72 40 -80 40 -9 0 -24
-15 -35 -32 -24 -43 -232 -315 -247 -324 -7 -5 -9 1 -6 19 3 15 1 24 -4 21
-11 -7 -40 63 -41 96 0 14 -6 60 -14 103 -8 44 -12 90 -8 104 4 19 -3 35 -34
72 l-41 48 46 18 46 18 -8 61 c-4 33 -9 79 -10 101 -3 77 -4 84 -21 101 -14
14 -29 16 -94 10 -79 -6 -139 -22 -150 -39 -4 -5 -3 -23 1 -38 5 -16 7 -29 4
-29 -3 0 0 -9 6 -21 10 -18 9 -20 -7 -17 -12 2 -20 15 -24 38 -6 31 -7 32 -8
8 0 -16 -5 -28 -10 -28 -5 0 -16 -15 -25 -34 -9 -19 -22 -36 -29 -39 -20 -7
-67 14 -67 30 0 8 23 42 50 76 74 92 65 117 -12 32 -59 -65 -63 -67 -77 -48
-9 10 -24 22 -34 26 -10 4 -16 10 -14 14 3 5 8 25 11 46 9 58 21 74 57 75 17
0 36 5 41 10 5 5 30 5 59 1 57 -9 79 -4 79 18 0 13 -3 13 -15 3 -12 -10 -15
-10 -15 3 0 8 7 18 16 21 14 5 16 16 11 57 -5 36 2 92 24 196 33 163 35 219 2
72z m-205 -617 c20 -31 1 -27 -22 5 -12 16 -14 24 -6 21 7 -2 20 -14 28 -26z
m-486 -57 c3 -14 1 -28 -3 -31 -5 -3 -9 1 -9 10 0 8 -3 21 -6 30 -3 9 -2 16 4
16 5 0 12 -11 14 -25z m819 -45 c21 -12 27 -45 7 -38 -7 3 -37 13 -65 22 -29
10 -53 19 -53 22 0 9 92 4 111 -6z m-34 -142 c-2 -7 3 -22 13 -33 9 -11 30
-54 45 -95 16 -41 34 -82 41 -90 6 -8 21 -46 32 -83 l20 -68 -25 -16 c-25 -17
-26 -16 -52 14 -108 129 -102 118 -127 236 -28 130 -29 146 -12 129 17 -17 39
-15 32 3 -4 11 0 15 16 15 13 0 20 -5 17 -12z m-158 -195 c1 -26 -3 -33 -19
-33 -17 0 -74 49 -66 57 1 2 17 -2 35 -8 18 -6 35 -8 39 -4 11 11 -26 33 -68
40 -21 4 -45 14 -54 24 -15 16 -15 19 -1 31 8 7 15 18 15 24 0 7 19 16 43 22
l42 9 17 -65 c9 -36 17 -80 17 -97z m60 120 c6 -21 11 -56 11 -78 0 -22 5 -57
11 -78 13 -47 5 -58 -20 -31 -25 24 -64 205 -47 216 23 15 35 7 45 -29z m54
-315 c18 -91 19 -128 2 -128 -21 0 -32 22 -38 80 -4 30 -10 75 -13 99 -7 42
-6 43 14 32 15 -8 24 -30 35 -83z m69 8 c18 -13 62 -115 54 -123 -3 -3 -20 19
-39 48 -51 82 -56 107 -15 75z m472 -22 c15 -14 14 -19 -10 -50 -21 -27 -30
-32 -40 -23 -20 16 -17 39 8 66 26 27 23 27 42 7z m41 -68 c-28 -37 -35 -42
-35 -27 0 13 51 73 57 67 3 -3 -7 -21 -22 -40z m129 17 c-4 -16 -12 -36 -19
-45 -10 -15 -12 -13 -12 15 0 32 12 57 28 57 5 0 6 -12 3 -27z m-484 -99 c0
-8 10 -28 22 -44 17 -24 19 -32 8 -44 -7 -10 -21 -14 -35 -10 -13 3 -26 1 -29
-4 -5 -9 -46 -5 -46 4 0 2 14 17 30 32 l31 27 -16 50 c-8 28 -15 52 -15 55 1
12 50 -53 50 -66z m-132 -26 c19 -19 14 -30 -8 -18 -11 6 -20 15 -20 20 0 14
14 12 28 -2z m380 -78 c6 -92 -43 -158 -73 -100 -21 40 -19 67 5 75 27 9 46
43 31 58 -18 18 -13 29 12 25 19 -3 22 -10 25 -58z m-220 -47 c2 -8 -5 -13
-17 -13 -21 0 -35 13 -24 24 10 10 36 3 41 -11z m-468 -73 c0 -5 -4 -10 -9
-10 -6 0 -13 5 -16 10 -3 6 1 10 9 10 9 0 16 -4 16 -10z m30 -16 c0 -8 -4 -12
-10 -9 -5 3 -10 10 -10 16 0 5 5 9 10 9 6 0 10 -7 10 -16z m541 -26 c12 -24
27 -50 34 -58 7 -8 16 -26 20 -40 4 -14 14 -30 22 -35 8 -6 25 -37 38 -70 21
-51 23 -62 11 -74 -17 -16 -16 -16 -106 179 -65 143 -64 140 -50 140 5 0 19
-19 31 -42z m-426 -58 c-3 -5 -11 -10 -16 -10 -6 0 -7 5 -4 10 3 6 11 10 16
10 6 0 7 -4 4 -10z m-1305 -8 c0 -13 -12 -22 -22 -16 -10 6 -1 24 13 24 5 0 9
-4 9 -8z m1230 -22 c-6 -11 -15 -18 -21 -14 -6 4 -6 11 2 20 17 21 31 17 19
-6z m970 -2 c0 -5 -18 -8 -39 -8 -58 0 -91 -16 -104 -50 -18 -47 -51 -50 -92
-7 -19 20 -35 38 -35 41 0 7 56 17 142 24 95 9 128 9 128 0z m150 -29 c0 -4 3
-15 7 -25 5 -14 2 -16 -14 -12 -27 7 -133 -11 -133 -23 0 -5 -4 -9 -9 -9 -11
0 -21 35 -12 47 6 8 69 37 101 46 17 5 60 -12 60 -24z m-2315 11 c8 -13 -3
-50 -15 -50 -13 0 -32 39 -25 50 8 13 32 13 40 0z m227 -42 c-9 -9 -15 -9 -24
0 -9 9 -7 12 12 12 19 0 21 -3 12 -12z m18 -38 c0 -5 -7 -10 -15 -10 -8 0 -15
5 -15 10 0 6 7 10 15 10 8 0 15 -4 15 -10z m2077 -19 c-9 -25 -18 -30 -56 -36
-25 -3 -56 -9 -67 -11 -16 -4 -23 0 -27 15 -4 16 0 22 16 26 12 2 47 11 77 18
30 8 58 15 62 16 3 0 1 -12 -5 -28z m159 -7 c4 -16 11 -23 21 -20 11 4 13 -1
11 -19 -2 -14 -6 -24 -9 -23 -3 2 -14 -5 -23 -15 -23 -23 -59 -18 -62 8 -1 11
-5 36 -9 55 -7 34 -6 35 29 37 31 3 36 0 42 -23z m-2379 10 c-3 -3 -12 -4 -19
-1 -8 3 -5 6 6 6 11 1 17 -2 13 -5z m858 -109 c-29 -14 -28 -14 38 -15 61 0
71 -3 93 -27 13 -14 23 -31 21 -37 -4 -11 -46 -21 -162 -35 -62 -8 -57 -9 45
-5 83 3 107 1 85 -6 -16 -5 -113 -12 -215 -15 -205 -6 -401 -18 -680 -41 -529
-43 -1121 -151 -1360 -248 -35 -14 -65 -24 -68 -22 -2 3 27 27 65 55 239 177
745 316 1353 372 177 16 555 36 695 37 109 0 117 -1 90 -13z m-5442 -83 c9
-10 15 -27 14 -39 -1 -20 -2 -20 -23 -4 -12 9 -18 19 -12 22 7 4 6 9 -1 13
-13 8 -15 26 -3 26 5 0 16 -8 25 -18z m6426 -110 c48 -83 54 -89 96 -100 25
-7 45 -17 45 -24 0 -9 -3 -9 -12 0 -20 20 -92 15 -122 -9 -18 -14 -24 -16 -20
-5 3 8 12 17 20 20 22 8 18 21 -37 129 -60 120 -42 112 30 -11z m-5467 -131
c11 -1 5 -41 -7 -41 -5 0 -28 11 -49 25 l-39 24 44 -4 c24 -2 47 -4 51 -4z
m4895 -48 c-3 -10 -5 -2 -5 17 0 19 2 27 5 18 2 -10 2 -26 0 -35z m-375 19 c4
-4 -9 -7 -30 -5 -26 2 -31 0 -14 -5 24 -7 56 -58 46 -73 -3 -5 0 -9 5 -9 6 0
11 -4 11 -10 0 -6 -32 -10 -76 -10 -69 0 -75 2 -68 18 4 9 7 26 7 37 0 11 -3
28 -7 38 -5 10 -4 17 3 17 6 0 14 -14 18 -31 5 -26 7 -29 16 -14 6 11 5 21 -2
28 -16 16 -14 25 7 30 21 7 74 -1 84 -11z m-355 -10 c-10 -10 -15 -22 -12 -25
3 -4 -3 0 -13 8 -15 14 -15 17 -2 25 8 5 21 10 29 10 11 0 11 -4 -2 -18z m77
3 c-4 -10 -10 -12 -18 -7 -6 5 -18 12 -26 15 -8 3 -1 6 17 6 25 1 31 -2 27
-14z m-209 -5 c-3 -5 -11 -10 -16 -10 -6 0 -7 5 -4 10 3 6 11 10 16 10 6 0 7
-4 4 -10z m1411 -16 c-4 -9 -9 -15 -11 -12 -3 3 -3 13 1 22 4 9 9 15 11 12 3
-3 3 -13 -1 -22z m-1256 -25 c0 -12 -5 -19 -11 -17 -6 2 -10 7 -10 11 1 4 1
14 1 23 0 8 5 12 10 9 6 -3 10 -15 10 -26z m-3220 11 c195 -24 425 -41 640
-45 129 -3 246 -6 260 -6 23 -1 23 -1 -5 -10 -51 -16 -387 -23 -467 -10 -95
14 -267 37 -393 51 -55 6 -129 15 -165 19 l-65 9 60 0 c33 1 94 -3 135 -8z
m3265 -62 c6 0 19 -4 30 -8 14 -5 5 -8 -28 -7 -33 0 -45 3 -37 11 5 5 11 24
11 41 l2 30 6 -33 c3 -18 11 -33 16 -34z m-555 30 c0 -19 -2 -20 -10 -8 -13
19 -13 30 0 30 6 0 10 -10 10 -22z m1205 -18 c-4 -17 -9 -30 -11 -27 -2 2 -1
18 2 36 4 17 9 30 11 27 3 -2 2 -19 -2 -36z m-4674 -3 c-8 -8 -11 -7 -11 4 0
9 3 19 7 23 4 4 9 2 11 -4 3 -7 -1 -17 -7 -23z m-2741 -7 c0 -13 -5 -18 -15
-14 -8 4 -15 12 -15 20 0 8 7 14 15 14 8 0 15 -9 15 -20z m71 7 c-1 -12 -15
-9 -19 4 -3 6 1 10 8 8 6 -3 11 -8 11 -12z m1629 -37 c0 -5 -5 -10 -11 -10 -5
0 -7 5 -4 10 3 6 8 10 11 10 2 0 4 -4 4 -10z m6471 -36 c13 -26 34 -57 47 -70
30 -31 30 -67 0 -62 -17 2 -30 21 -54 78 -18 41 -38 76 -44 78 -9 3 -8 7 1 13
22 14 25 12 50 -37z m-776 -4 c-4 -17 -9 -30 -11 -27 -2 2 -1 18 2 36 4 17 9
30 11 27 3 -2 2 -19 -2 -36z m688 23 c-7 -2 -19 -2 -25 0 -7 3 -2 5 12 5 14 0
19 -2 13 -5z m-8145 -45 c2 -19 -2 -28 -17 -33 -12 -3 -25 -3 -31 0 -5 3 -10
1 -10 -4 0 -6 -4 -11 -10 -11 -11 0 -14 63 -3 74 4 4 21 6 38 4 24 -2 31 -8
33 -30z m122 24 c0 -13 -12 -22 -22 -16 -10 6 -1 24 13 24 5 0 9 -4 9 -8z
m1717 -7 c7 -20 -2 -29 -21 -22 -9 4 -13 13 -10 22 8 19 23 19 31 0z m5575
-146 c-16 -57 -38 -124 -49 -149 -11 -25 -23 -54 -27 -64 -3 -10 -9 -16 -12
-14 -3 3 6 32 19 65 13 33 39 107 58 166 18 58 35 105 37 103 1 -2 -10 -50
-26 -107z m-2460 32 c-53 -61 -172 -275 -172 -310 0 -11 8 -24 18 -30 13 -7
14 -13 5 -22 -13 -13 -93 -30 -105 -23 -12 8 -9 42 3 46 7 2 13 19 16 38 6 57
32 151 57 206 20 43 33 56 72 76 27 14 71 39 99 56 27 17 51 29 54 26 2 -2
-19 -30 -47 -63z m2557 30 c-6 -18 -13 -30 -15 -28 -2 2 1 18 7 36 6 18 13 30
15 28 2 -2 -1 -18 -7 -36z m-2969 -40 c0 -11 -31 -24 -39 -16 -3 3 1 10 9 15
19 12 30 12 30 1z m3623 -21 c7 -29 -11 -36 -22 -8 -9 24 -5 42 8 33 5 -2 11
-14 14 -25z m-6722 -25 c137 -49 499 -117 848 -161 33 -4 49 -9 41 -14 -9 -6
-6 -10 11 -13 108 -21 -317 28 -516 60 -206 33 -435 102 -435 132 0 14 -1 14
51 -4z m3016 -10 c-4 -8 -11 -15 -17 -15 -14 0 -13 27 3 33 16 6 21 1 14 -18z
m3282 -61 c36 -62 35 -62 131 -16 30 15 59 29 63 31 5 2 -16 -29 -46 -69 -30
-40 -71 -105 -91 -146 -34 -68 -76 -204 -76 -246 0 -14 -8 -18 -36 -18 -30 0
-35 3 -30 17 4 9 1 20 -6 25 -10 6 -9 8 4 8 24 0 43 37 28 55 -13 16 -5 35 15
35 16 0 22 18 30 77 6 48 -22 125 -52 141 -17 10 -17 13 -1 55 9 25 13 49 8
53 -4 5 -11 19 -14 31 -5 16 -2 22 11 25 25 6 28 4 62 -58z m-7559 25 c-7 -11
-14 -18 -17 -15 -8 8 5 36 17 36 7 0 7 -6 0 -21z m490 2 c0 -13 -28 -22 -35
-11 -3 4 1 11 7 13 20 8 28 8 28 -2z m-235 -36 c61 -19 130 -35 155 -35 l45
-1 -35 -29 c-19 -16 -91 -64 -160 -106 -69 -43 -145 -93 -170 -112 -24 -18
-46 -29 -48 -23 -3 8 50 274 64 324 7 24 23 22 149 -18z m954 8 c23 -15 23
-17 6 -30 -11 -7 -44 -13 -74 -13 -31 -1 -78 -7 -106 -14 -56 -15 -82 -11 -95
14 -11 21 1 25 145 45 49 7 92 13 95 14 3 0 16 -6 29 -16z m-299 -22 c0 -4
-31 -11 -69 -15 -37 -3 -87 -13 -111 -21 -51 -18 -53 -18 -45 -4 18 29 225 66
225 40z m1624 -51 c13 0 29 -6 35 -14 9 -11 6 -15 -15 -19 -17 -3 -27 0 -32
11 -4 11 -10 3 -19 -24 l-13 -39 5 49 c3 27 6 58 6 70 2 15 3 13 6 -6 3 -21
10 -28 27 -28z m-1193 2 c-7 -13 -35 -20 -113 -29 -57 -6 -131 -16 -166 -22
-61 -11 -88 -8 -77 8 7 13 61 21 165 27 100 5 165 18 175 34 11 18 26 0 16
-18z m1314 -66 c-10 -27 -10 -27 -13 19 -2 26 0 55 4 64 12 27 21 -50 9 -83z
m5188 74 c5 -4 4 -17 -2 -29 -10 -18 -8 -23 14 -33 22 -10 26 -17 21 -40 -5
-24 -1 -30 19 -38 21 -8 24 -14 19 -40 -4 -16 -3 -30 2 -30 5 0 15 -4 23 -9
29 -19 -53 -112 -134 -153 -31 -16 -201 -45 -210 -36 -9 8 23 146 47 201 26
61 57 114 107 180 30 41 40 47 61 42 14 -4 29 -10 33 -15z m-6946 -54 c4 -37
1 -47 -9 -44 -7 3 -14 13 -16 24 -7 45 -13 50 -27 24 -11 -21 -15 -22 -20 -8
-4 9 1 28 10 42 13 19 21 23 38 17 16 -6 21 -18 24 -55z m-166 11 c-1 -12 -15
-9 -19 4 -3 6 1 10 8 8 6 -3 11 -8 11 -12z m3579 -34 c0 -25 -1 -25 -18 -10
-14 12 -40 18 -98 19 l-79 2 90 6 c50 3 93 7 98 8 4 1 7 -10 7 -25z m3130 17
c0 -5 -4 -10 -10 -10 -5 0 -10 5 -10 10 0 6 5 10 10 10 6 0 10 -4 10 -10z
m-139 -67 c-8 -15 -10 -15 -11 -2 0 17 10 32 18 25 2 -3 -1 -13 -7 -23z
m-6301 10 c0 -5 -7 -17 -16 -28 -12 -17 -16 -18 -24 -5 -5 9 -5 19 2 27 11 14
38 18 38 6z m-123 -25 c-3 -8 -6 -5 -6 6 -1 11 2 17 5 13 3 -3 4 -12 1 -19z
m190 16 c-3 -3 -12 -4 -19 -1 -8 3 -5 6 6 6 11 1 17 -2 13 -5z m55 -26 c-9 -9
-12 -7 -12 12 0 19 3 21 12 12 9 -9 9 -15 0 -24z m121 25 c-7 -2 -21 -2 -30 0
-10 3 -4 5 12 5 17 0 24 -2 18 -5z m5551 -18 c8 -8 23 -15 33 -15 44 -1 -12
-17 -65 -19 -65 -3 -112 -8 -117 -13 -4 -4 10 -78 19 -99 6 -13 -2 -17 -40
-23 -92 -12 -95 -11 -92 37 3 41 2 42 -28 42 -17 0 -39 7 -49 15 -15 13 -54
15 -234 12 -169 -2 -226 0 -261 12 l-45 15 75 1 c41 1 187 5 323 9 211 7 251
10 265 24 23 23 193 25 216 2z m673 -7 c-3 -8 -6 -5 -6 6 -1 11 2 17 5 13 3
-3 4 -12 1 -19z m-7182 2 c-3 -5 -16 -15 -28 -21 -21 -10 -21 -9 2 10 25 23
36 27 26 11z m1290 -10 c14 -6 4 -9 -37 -9 -33 -1 -58 3 -58 9 0 12 67 12 95
0z m-305 -10 c0 -5 -2 -10 -4 -10 -3 0 -8 5 -11 10 -3 6 -1 10 4 10 6 0 11 -4
11 -10z m6223 -13 c-4 -6 -7 -23 -7 -37 -1 -20 -7 -26 -30 -28 -27 -3 -28 -2
-21 25 9 37 19 48 45 50 13 1 18 -2 13 -10z m-1640 -4 c-30 -3 -46 -10 -54
-24 -7 -14 -16 -18 -30 -14 -21 7 -73 -30 -64 -45 6 -10 -37 -16 -99 -16 -30
1 -51 6 -53 14 -5 14 20 16 65 3 36 -11 40 -6 15 21 -14 16 -14 18 -1 18 9 0
19 -8 23 -17 7 -16 9 -15 15 7 16 50 17 50 -100 50 -91 0 -110 -3 -110 -15 0
-18 -5 -18 -87 -3 -39 7 -59 15 -51 20 7 4 139 7 293 6 154 -1 261 -3 238 -5z
m-4734 -19 c10 -9 -18 -25 -52 -31 -47 -7 -84 3 -97 26 -9 18 -6 19 68 14 42
-3 79 -7 81 -9z m3275 -83 c-9 -22 -21 -38 -25 -35 -4 2 2 22 14 43 28 50 35
45 11 -8z m-1314 28 c0 -18 -110 -63 -123 -50 -8 8 -4 18 13 36 18 19 33 25
67 25 24 0 43 -5 43 -11z m2080 -10 c0 -5 -22 -9 -49 -9 -55 0 -63 -9 -54 -65
4 -24 1 -41 -9 -53 -9 -9 -17 -23 -19 -30 -3 -9 -18 -1 -45 22 -43 37 -169
106 -193 106 -35 0 6 16 67 26 82 14 302 16 302 3z m-2982 -10 c15 -1 20 -3
11 -6 -10 -2 -19 -13 -22 -24 -3 -10 -11 -19 -17 -19 -9 0 -9 4 1 17 12 15 12
16 -5 10 -13 -5 -17 -3 -13 7 3 8 3 17 -1 19 -4 2 -1 2 6 0 8 -1 26 -4 40 -4z
m3109 -14 c2 -11 0 -14 -3 -7 -3 6 -12 12 -20 12 -8 0 -14 5 -14 11 0 19 35 4
37 -16z m213 15 c0 -5 -4 -10 -10 -10 -5 0 -10 5 -10 10 0 6 5 10 10 10 6 0
10 -4 10 -10z m-905 -20 c-3 -5 -2 -10 4 -10 5 0 11 6 14 13 2 6 8 9 12 5 4
-4 2 -14 -5 -23 -10 -12 -16 -13 -26 -4 -17 14 -18 29 -3 29 5 0 7 -4 4 -10z
m844 4 c25 -5 31 -11 31 -32 0 -14 10 -52 22 -84 23 -65 20 -74 -30 -84 -27
-5 -32 -3 -32 11 0 26 -29 55 -56 55 -33 0 -54 10 -54 26 0 8 9 14 19 14 25 0
45 54 30 81 -8 16 -6 19 14 19 14 0 39 -3 56 -6z m1009 -22 c2 -14 11 -22 22
-22 28 0 32 -15 9 -36 -19 -17 -20 -17 -26 4 -3 13 -13 22 -24 22 -21 0 -22 4
-13 38 8 28 28 24 32 -6z m985 8 c3 -13 0 -20 -8 -20 -21 0 -28 -19 -15 -35
10 -12 9 -15 -7 -15 -31 0 -33 9 -11 51 22 44 33 49 41 19z m553 -10 c-5 -26
-2 -32 19 -40 21 -8 24 -14 19 -36 -4 -17 -2 -29 7 -34 10 -7 8 -26 -14 -102
-32 -108 -75 -216 -95 -240 -13 -16 -75 -49 -117 -62 -50 -15 -179 164 -204
282 -19 91 -20 89 61 96 89 9 200 61 260 122 52 53 73 57 64 14z m-1774 -29
c86 -23 189 -55 230 -71 40 -16 74 -30 75 -30 1 0 7 -18 13 -41 11 -38 12 -40
29 -25 10 9 24 16 32 16 8 0 48 21 89 46 41 25 96 57 122 69 l48 23 -5 -21
c-3 -12 -9 -44 -15 -70 -11 -52 -45 -110 -78 -132 -39 -28 -144 -15 -150 18
-2 10 3 17 12 17 9 0 16 7 16 15 0 22 -17 18 -30 -6 -9 -16 -14 -18 -26 -8
-12 10 -20 8 -44 -9 -26 -20 -29 -20 -33 -4 -4 16 -5 16 -6 0 0 -9 4 -20 9
-23 19 -12 10 -25 -19 -25 -33 0 -43 17 -35 59 4 16 1 32 -5 35 -6 4 -11 16
-11 27 0 16 -6 20 -27 17 -25 -3 -28 -8 -39 -68 -7 -36 -22 -92 -33 -125 -12
-33 -22 -69 -22 -80 -1 -34 8 -76 17 -84 15 -14 143 -53 152 -47 5 3 12 19 15
36 7 31 28 39 57 20 13 -9 11 -14 -13 -34 -25 -20 -26 -24 -13 -36 9 -7 30
-14 46 -15 42 -4 51 -15 12 -15 -25 0 -32 -4 -32 -19 0 -11 6 -22 13 -24 7 -3
5 -6 -5 -6 -32 -2 -22 -39 12 -46 17 -4 30 -13 30 -21 0 -8 -2 -14 -4 -14 -2
0 -12 -3 -22 -7 -14 -5 -16 -2 -12 15 5 18 2 22 -19 22 -17 0 -24 -5 -22 -17
2 -17 -2 -30 -22 -81 -5 -13 -7 -28 -4 -33 4 -5 1 -9 -6 -9 -7 0 -9 -10 -7
-25 3 -14 1 -25 -3 -25 -17 0 -9 -19 11 -25 11 -3 20 -14 20 -24 0 -9 5 -22
10 -27 14 -14 -35 -132 -66 -161 -13 -12 -24 -28 -24 -35 0 -28 -20 -42 -59
-43 -40 -1 -52 7 -31 20 6 4 8 15 5 26 -4 11 -2 19 4 19 18 0 12 21 -11 41
l-23 20 33 -6 c27 -6 32 -4 32 12 0 11 5 24 11 30 8 8 4 15 -12 27 l-23 16 33
0 c28 0 33 3 28 20 -3 13 0 20 9 20 23 0 16 28 -8 36 -22 8 -22 8 6 13 21 4
30 13 33 29 5 33 10 55 16 72 13 36 38 127 41 150 2 14 7 33 11 44 12 27 -8
36 -149 62 -37 6 -39 6 -34 -18 2 -13 -2 -30 -9 -37 -7 -7 -11 -16 -8 -22 4
-5 2 -9 -3 -9 -5 0 -13 -21 -17 -46 -4 -26 -11 -54 -16 -63 -5 -9 -12 -32 -17
-51 -5 -19 -12 -33 -18 -32 -5 2 -7 9 -5 15 2 7 4 19 5 27 2 8 6 22 10 31 4 9
6 20 5 25 -1 5 0 16 4 24 21 56 36 114 31 122 -4 6 -1 14 6 18 19 11 5 41 -16
33 -9 -3 -19 -2 -23 4 -6 9 -273 84 -297 83 -7 0 -14 -10 -17 -22 -3 -13 -14
-53 -25 -90 -11 -37 -17 -70 -14 -73 3 -3 1 -5 -5 -5 -6 0 -14 -20 -17 -45 -5
-28 -12 -45 -21 -45 -14 0 -12 26 5 65 5 11 16 52 25 90 8 39 18 79 21 90 12
45 10 47 -91 76 -55 16 -108 34 -118 40 -22 12 -24 11 -31 -21 -2 -14 -9 -38
-15 -55 -5 -16 -15 -50 -21 -74 -6 -23 -13 -41 -16 -38 -5 4 28 148 42 181 4
11 16 28 26 38 10 10 18 27 18 38 0 30 45 26 76 -7 29 -31 34 -27 51 35 27 97
27 106 -1 119 -14 6 -26 7 -26 2 0 -5 -7 -9 -15 -9 -8 0 -15 8 -15 18 0 9 -3
26 -6 38 -5 17 0 22 25 27 17 4 31 12 31 18 0 6 -9 9 -20 6 -10 -3 -24 1 -31
9 -17 21 8 47 39 39 13 -3 30 -1 38 5 7 7 18 9 23 6 5 -4 13 -1 17 5 12 20
139 3 306 -40z m-672 -24 c0 -5 -4 -5 -10 -2 -5 3 -10 14 -10 23 0 15 2 15 10
2 5 -8 10 -19 10 -23z m82 -7 c-6 -11 -12 -26 -12 -34 0 -16 -23 -27 -36 -18
-14 10 -16 32 -3 32 6 0 9 7 5 15 -7 19 34 49 48 35 7 -7 7 -17 -2 -30z
m-2285 24 l29 -6 -29 -31 c-29 -31 -32 -32 -110 -30 -119 4 -132 32 -26 58 63
15 95 17 136 9z m2359 -12 c13 -21 -7 -94 -34 -124 -16 -19 -92 -26 -92 -8 0
6 9 10 19 10 22 0 61 44 61 69 0 19 22 71 30 71 3 0 10 -8 16 -18z m1001 2 c2
-6 -20 -21 -49 -34 -29 -12 -68 -29 -86 -37 -31 -15 -34 -14 -47 3 -8 11 -15
22 -15 25 0 12 24 25 70 38 25 8 50 15 55 17 21 6 69 -1 72 -12z m-1563 0 c30
-12 12 -44 -25 -44 -5 0 -9 11 -9 25 0 26 7 29 34 19z m79 -10 c14 -5 14 -8
-1 -24 -18 -22 -32 -17 -32 11 0 20 8 23 33 13z m-1705 -11 c-10 -2 -28 -2
-40 0 -13 2 -5 4 17 4 22 1 32 -1 23 -4z m912 -13 c54 -8 -2 -7 -480 10 -171
7 -150 7 105 3 176 -3 345 -9 375 -13z m350 1 c0 -10 -26 -9 -36 2 -4 4 2 7
14 7 12 0 22 -4 22 -9z m2350 -5 c0 -8 7 -17 16 -20 13 -5 14 -9 4 -21 -13
-16 -40 -9 -40 10 0 8 -9 17 -20 20 -26 8 -16 25 16 25 14 0 24 -6 24 -14z
m-2603 -12 c-3 -3 -12 -4 -19 -1 -8 3 -5 6 6 6 11 1 17 -2 13 -5z m-2417 -34
c0 -6 20 -10 45 -10 33 0 45 -4 45 -15 0 -8 -1 -16 -2 -18 -2 -2 5 -11 14 -21
9 -9 15 -22 13 -29 -2 -7 -31 -115 -64 -240 -34 -126 -67 -235 -75 -243 -9 -8
-13 -21 -10 -29 5 -11 -1 -15 -20 -15 -35 0 -41 20 -23 78 8 26 43 139 77 252
33 113 65 212 69 221 10 17 -13 36 -59 49 -21 6 -29 3 -38 -11 -19 -30 -42
-24 -42 11 0 20 5 30 15 30 8 0 15 5 15 10 0 7 6 7 20 0 11 -6 20 -15 20 -20z
m2665 20 c3 -5 2 -10 -4 -10 -5 0 -13 5 -16 10 -3 6 -2 10 4 10 5 0 13 -4 16
-10z m-5235 -57 c-1 -31 -3 -35 -11 -20 -6 9 -7 26 -4 37 10 30 15 24 15 -17z
m5863 20 c4 -2 7 -11 7 -19 0 -12 -12 -15 -60 -13 -61 2 -65 5 -54 34 6 14 15
16 53 10 25 -4 49 -9 54 -12z m-2514 -50 c-47 -53 -59 -61 -59 -43 0 16 74 90
90 90 7 0 -7 -21 -31 -47z m1701 16 c19 -35 5 -44 -19 -11 -18 26 -19 32 -7
32 8 0 20 -9 26 -21z m258 -16 c3 -10 -16 -13 -71 -13 -79 0 -107 6 -107 21 0
15 173 6 178 -8z m3254 -22 c-1 -19 3 -31 10 -31 7 0 21 -6 30 -13 15 -12 9
-19 -51 -65 -38 -29 -71 -52 -74 -52 -4 0 -3 10 2 23 5 12 17 51 27 87 10 36
22 71 27 78 16 21 32 7 29 -27z m-5580 -33 c59 -84 65 -93 47 -83 -110 67
-119 75 -113 103 7 29 13 42 19 42 2 0 23 -28 47 -62z m2485 -75 c-3 -25 -10
-39 -21 -41 -13 -3 -16 5 -16 37 0 35 3 41 20 41 18 0 20 -5 17 -37z m1789 -5
c-17 -41 -54 -60 -98 -51 -78 14 -78 48 0 57 31 4 68 12 82 20 14 7 26 12 28
11 1 -1 -4 -18 -12 -37z m-1586 12 c0 -5 -4 -10 -10 -10 -5 0 -10 5 -10 10 0
6 5 10 10 10 6 0 10 -4 10 -10z m3480 -43 c0 -5 -7 -4 -15 3 -8 7 -15 20 -15
29 1 13 3 13 15 -3 8 -11 15 -24 15 -29z m-3605 23 c12 -19 -5 -30 -25 -17
-11 6 -20 15 -20 19 0 12 38 10 45 -2z m165 -2 c0 -7 -8 -23 -18 -36 -15 -19
-22 -21 -42 -14 -25 9 -25 9 -3 16 12 4 25 16 28 27 7 21 35 27 35 7z m1782
-51 c-19 -60 -32 -82 -32 -53 0 19 41 119 46 113 2 -1 -5 -28 -14 -60z m1206
50 c16 -19 3 -32 -68 -65 -36 -17 -74 -39 -85 -49 -31 -28 -118 -99 -133 -107
-60 -35 132 143 216 201 54 37 56 37 70 20z m-4249 -67 c0 -13 -1 -13 -8 0 -5
8 -12 26 -15 40 l-7 25 15 -25 c9 -14 15 -32 15 -40z m1431 34 c0 -8 -9 -14
-20 -14 -22 0 -28 26 -7 33 16 6 27 -1 27 -19z m1074 11 c13 -10 25 -11 42 -5
19 8 24 6 24 -6 0 -11 -6 -15 -19 -11 -15 4 -20 -2 -26 -30 -3 -19 -13 -36
-23 -39 -19 -6 -28 -11 -65 -37 -34 -25 -71 -15 -62 16 4 12 15 34 26 49 10
15 19 34 19 43 0 9 10 20 23 25 30 12 39 12 61 -5z m-1129 -4 c7 -12 -12 -24
-25 -16 -11 7 -4 25 10 25 5 0 11 -4 15 -9z m-1426 -29 c43 -36 33 -63 -57
-156 -62 -63 -92 -87 -118 -92 -32 -6 -38 -1 -133 91 -96 93 -99 98 -90 128 5
17 14 34 20 37 6 4 89 8 184 9 151 1 175 -1 194 -17z m352 -47 c-21 -65 -27
-65 -10 0 15 57 19 68 24 64 2 -3 -4 -32 -14 -64z m699 15 c0 -20 -5 -30 -15
-30 -15 0 -21 40 -8 53 14 15 23 6 23 -23z m195 11 c18 -13 21 -21 13 -29 -16
-16 -48 4 -48 28 0 25 6 25 35 1z m1559 -20 c3 -5 -4 -32 -16 -60 -20 -51 -21
-52 -2 -66 17 -13 17 -14 2 -15 -9 0 -28 5 -41 11 -19 8 -23 16 -19 36 3 18
-1 30 -13 40 -18 13 -18 13 1 28 10 8 27 15 36 15 9 0 20 5 23 10 8 12 22 13
29 1z m1496 5 c0 -2 -8 -10 -17 -17 -16 -13 -17 -12 -4 4 13 16 21 21 21 13z
m-2830 -27 c0 -24 -23 -21 -28 4 -2 10 3 17 12 17 10 0 16 -9 16 -21z m3350
-42 c0 -5 -7 -4 -15 3 -8 7 -15 20 -15 29 1 13 3 13 15 -3 8 -11 15 -24 15
-29z m-3167 27 c9 -9 -4 -35 -14 -28 -5 3 -9 12 -9 20 0 14 12 19 23 8z m1423
-160 c-66 -195 -78 -228 -83 -234 -9 -11 -20 24 -12 39 5 9 25 59 44 111 20
52 46 120 59 150 13 30 27 65 31 78 4 13 9 22 11 19 2 -2 -20 -75 -50 -163z
m-2078 113 c3 -28 -6 -35 -25 -16 -13 13 -5 51 11 46 6 -2 12 -16 14 -30z
m1702 14 c7 -14 6 -21 -3 -24 -9 -4 -8 -8 3 -16 9 -7 11 -11 3 -11 -7 0 -17 8
-22 18 -10 16 -10 16 -11 -1 0 -10 -4 -15 -10 -12 -14 8 -13 38 2 53 17 17 26
15 38 -7z m-1296 -18 c8 -20 -6 -36 -27 -31 -11 2 -12 9 -6 26 10 26 24 29 33
5z m1646 7 c0 -5 -4 -10 -10 -10 -5 0 -10 5 -10 10 0 6 5 10 10 10 6 0 10 -4
10 -10z m2464 -16 c94 -16 167 -37 232 -64 71 -31 46 -35 -43 -6 -203 63 -402
85 -578 62 -66 -9 -140 -18 -165 -21 l-45 -5 35 13 c31 12 129 29 240 41 58 6
238 -5 324 -20z m-4444 -35 l0 -50 54 6 c52 7 53 6 58 -19 6 -32 2 -36 -35
-36 -34 0 -67 -25 -66 -49 0 -10 4 -7 10 8 l9 24 25 -23 c14 -13 25 -34 25
-47 0 -25 15 -31 23 -10 2 7 28 19 57 26 38 10 54 19 60 37 12 30 90 50 230
58 19 1 41 5 48 10 15 9 16 45 2 81 -9 23 -8 26 7 23 14 -3 18 -14 18 -48 0
-34 6 -51 23 -68 37 -37 19 -45 -80 -40 -97 6 -115 -3 -89 -45 7 -10 9 -23 4
-28 -4 -4 -60 -10 -123 -11 l-115 -3 -3 -32 c-3 -34 -1 -36 71 -48 38 -6 39
-7 21 -26 -16 -18 -16 -21 -2 -35 13 -13 13 -21 5 -45 -10 -24 -17 -29 -47
-29 -58 0 -178 -26 -194 -43 -9 -9 -16 -27 -16 -42 0 -55 -45 -86 -78 -53 -9
9 -12 8 -16 -3 -41 -127 -49 -155 -51 -168 -1 -9 -4 -23 -8 -31 -12 -30 -36
-107 -52 -171 -31 -123 -57 -199 -67 -199 -21 0 -1 74 171 620 39 124 79 253
91 288 14 46 17 69 10 82 -15 28 -12 40 9 40 32 0 35 20 3 26 -21 4 -32 15
-40 38 -16 43 -15 46 8 46 13 0 20 7 20 20 0 11 5 20 10 20 6 0 10 -23 10 -51z
m440 42 c0 -12 -28 -22 -34 -12 -3 5 -3 11 1 15 9 9 33 7 33 -3z m-3983 -47
c-3 -3 -12 -4 -19 -1 -8 3 -5 6 6 6 11 1 17 -2 13 -5z m-64 -11 c-7 -2 -21 -2
-30 0 -10 3 -4 5 12 5 17 0 24 -2 18 -5z m-128 -27 c-194 -53 -412 -168 -540
-286 -74 -68 -96 -81 -45 -26 71 75 206 172 315 227 99 49 276 108 325 108 14
0 -11 -10 -55 -23z m428 -13 c-7 -2 -19 -2 -25 0 -7 3 -2 5 12 5 14 0 19 -2
13 -5z m119 -15 c-4 -3 -25 -2 -47 2 l-40 8 47 -1 c26 -1 44 -5 40 -9z m4943
-27 c-3 -6 -11 -11 -17 -11 -6 0 -6 6 2 15 14 17 26 13 15 -4z m3050 9 c3 -5
2 -10 -4 -10 -5 0 -13 5 -16 10 -3 6 -2 10 4 10 5 0 13 -4 16 -10z m-3195 -8
c0 -13 -12 -22 -22 -16 -10 6 -1 24 13 24 5 0 9 -4 9 -8z m-5098 -23 c-16 -64
-15 -74 0 -61 9 7 19 23 22 36 16 65 163 58 180 -9 10 -40 28 -30 20 11 l-7
36 54 -7 c55 -7 99 -27 99 -45 0 -6 -11 -10 -25 -10 -28 0 -35 -27 -10 -36 22
-9 18 -34 -4 -34 -28 0 -36 -18 -17 -39 21 -23 20 -31 -3 -31 -25 0 -37 -18
-22 -33 17 -17 13 -34 -9 -40 -20 -5 -29 -37 -10 -37 6 0 10 -5 10 -11 0 -6
-7 -9 -15 -5 -8 3 -15 2 -15 -2 0 -4 -33 -7 -72 -8 -40 0 -119 -3 -176 -7 -65
-4 -101 -3 -97 3 3 6 14 10 23 10 13 0 14 2 3 9 -21 14 5 24 30 11 26 -14 36
-6 19 15 -10 12 -10 15 1 15 18 0 41 -15 40 -26 0 -5 9 -12 20 -16 10 -4 19
-4 19 0 0 5 30 6 68 4 77 -5 76 8 -4 31 -76 22 -245 85 -278 104 -27 15 -30
15 -43 -2 -7 -11 -13 -27 -13 -37 0 -10 0 -20 0 -23 -1 -2 -9 -23 -19 -46 -11
-23 -17 -47 -15 -54 3 -6 -3 -18 -12 -26 -15 -12 -17 -12 -12 1 21 57 20 60
-13 78 -49 26 -98 71 -77 72 28 0 51 -12 38 -20 -7 -4 2 -15 26 -29 36 -22 39
-22 51 -5 20 27 16 32 -24 36 l-38 4 43 8 c29 6 42 14 42 25 0 14 -8 16 -57
10 -110 -13 -133 -27 -165 -95 -32 -68 -47 -157 -29 -168 6 -4 15 3 21 18 6
17 14 24 25 20 8 -3 15 -7 15 -9 0 -1 -16 -19 -36 -39 l-36 -37 -86 30 c-51
19 -89 27 -96 22 -25 -20 -196 -38 -196 -20 0 11 25 29 41 29 9 0 24 11 33 25
9 14 21 25 27 25 14 0 39 26 39 39 0 11 80 91 91 91 3 0 13 -15 22 -32 l16
-33 -5 41 c-6 37 -3 44 31 77 23 23 49 37 68 39 20 2 32 8 32 18 0 19 87 60
126 60 17 0 32 7 38 18 6 11 31 23 61 30 70 16 70 16 70 -20 l1 -33 13 30 c15
34 48 55 103 65 46 9 59 7 55 -11z m8256 -5 c12 -4 22 -13 22 -21 0 -17 -36
-9 -58 13 -15 16 -4 18 36 8z m-3043 -14 c-4 -6 -1 -18 6 -26 9 -11 9 -18 1
-26 -13 -13 -33 -2 -26 16 3 8 0 17 -6 21 -9 6 -9 10 1 16 19 12 32 11 24 -1z
m60 0 c3 -5 2 -10 -4 -10 -5 0 -13 5 -16 10 -3 6 -2 10 4 10 5 0 13 -4 16 -10z
m3131 -15 c10 -8 14 -15 8 -15 -5 0 -19 7 -30 15 -10 8 -14 15 -8 15 5 0 19
-7 30 -15z m-3232 -40 c3 -8 1 -15 -4 -15 -6 0 -10 7 -10 15 0 8 2 15 4 15 2
0 6 -7 10 -15z m3315 -81 c233 -184 401 -488 426 -771 7 -70 -7 -126 -25 -107
-14 15 -15 115 -1 123 18 12 10 67 -9 64 -20 -4 -56 123 -40 142 14 17 2 45
-19 45 -21 1 -62 91 -50 112 6 11 1 27 -14 49 -12 19 -27 45 -34 59 -12 26
-60 84 -148 179 -27 29 -89 83 -137 118 -49 36 -88 70 -88 75 0 14 51 -19 139
-88z m-4169 82 c0 -3 -4 -8 -10 -11 -5 -3 -10 -1 -10 4 0 6 5 11 10 11 6 0 10
-2 10 -4z m-3915 -17 c4 -6 5 -12 2 -15 -7 -7 -37 7 -37 17 0 13 27 11 35 -2z
m4902 -33 c61 -46 99 -83 92 -90 -2 -2 -30 16 -62 40 -32 24 -69 44 -81 44
-34 0 -49 20 -28 36 9 8 18 14 19 14 2 0 29 -20 60 -44z m-4797 14 c0 -5 -9
-10 -20 -10 -11 0 -20 5 -20 10 0 6 9 10 20 10 11 0 20 -4 20 -10z m3935 0
c19 -8 19 -9 -2 -9 -12 -1 -25 4 -28 9 -7 12 2 12 30 0z m-642 -6 c20 -4 37
-11 37 -17 0 -13 -149 -2 -163 12 -12 12 62 15 126 5z m112 -14 c3 -5 1 -10
-4 -10 -6 0 -11 5 -11 10 0 6 2 10 4 10 3 0 8 -4 11 -10z m1125 0 c0 -5 -5
-10 -11 -10 -5 0 -7 5 -4 10 3 6 8 10 11 10 2 0 4 -4 4 -10z m-470 -10 c8 -5
11 -10 5 -10 -5 0 -17 5 -25 10 -8 5 -10 10 -5 10 6 0 17 -5 25 -10z m-4183
-27 c3 -7 -3 -9 -16 -6 -12 3 -21 10 -21 15 0 13 32 6 37 -9z m4821 5 c7 -7
12 -9 12 -6 0 14 103 -90 129 -131 31 -49 52 -119 32 -107 -6 4 -11 13 -11 21
0 8 -17 41 -37 74 -49 76 -99 107 -184 110 -18 1 -33 27 -23 42 8 13 68 11 82
-3z m989 5 c-30 -58 -131 -222 -135 -219 -4 4 2 16 43 96 19 35 86 130 93 130
2 0 1 -3 -1 -7z m1080 -8 c9 -24 -1 -27 -15 -5 -8 13 -8 20 -2 20 6 0 13 -7
17 -15z m-6587 0 c0 -2 -13 -11 -30 -20 -33 -17 -38 -14 -14 9 14 15 44 22 44
11z m3600 1 c0 -3 -4 -8 -10 -11 -5 -3 -10 -1 -10 4 0 6 5 11 10 11 6 0 10 -2
10 -4z m727 -18 c-3 -8 -6 -5 -6 6 -1 11 2 17 5 13 3 -3 4 -12 1 -19z m-4517
2 c0 -5 -14 -10 -31 -10 -17 0 -28 4 -24 10 3 6 17 10 31 10 13 0 24 -4 24
-10z m6322 -37 c-28 -27 -73 -71 -101 -100 -28 -29 -51 -48 -51 -43 0 12 180
190 192 190 6 0 -12 -21 -40 -47z m-6047 11 c45 -34 67 -68 57 -91 -6 -17 -13
-18 -72 -8 -36 5 -65 13 -65 17 0 10 39 108 43 108 2 0 18 -12 37 -26z m3025
22 c0 -11 -19 -15 -25 -6 -3 5 1 10 9 10 9 0 16 -2 16 -4z m770 -6 c12 -8 11
-10 -7 -10 -12 0 -25 5 -28 10 -8 13 15 13 35 0z m-1204 -25 c3 -8 -9 -61 -28
-117 l-34 -103 -54 -2 c-30 -1 -47 1 -37 4 9 2 17 13 17 24 0 15 -7 19 -37 19
-37 1 -50 8 -171 95 -45 32 -51 59 -20 79 13 8 23 5 43 -14 26 -24 27 -24 40
-6 12 16 27 18 117 17 57 -1 110 3 118 9 22 14 40 12 46 -5z m1744 -5 c-24
-15 -36 -11 -14 4 10 8 21 12 24 10 2 -3 -2 -9 -10 -14z m-4525 0 c3 -5 1 -10
-4 -10 -6 0 -11 5 -11 10 0 6 2 10 4 10 3 0 8 -4 11 -10z m6395 0 c0 -5 -4
-10 -10 -10 -5 0 -10 5 -10 10 0 6 5 10 10 10 6 0 10 -4 10 -10z m95 -36 c-10
-19 -15 -23 -15 -11 0 9 -7 17 -15 17 -16 0 -20 12 -8 23 3 4 12 2 20 -4 10
-9 13 -7 13 7 0 12 3 15 10 8 7 -7 6 -20 -5 -40z m-6700 27 c3 -5 1 -12 -4
-15 -12 -8 -41 3 -41 15 0 12 37 12 45 0z m6975 -85 c22 -43 39 -86 37 -95 -2
-13 -97 168 -97 187 0 14 21 -18 60 -92z m-2787 77 c-7 -2 -21 -2 -30 0 -10 3
-4 5 12 5 17 0 24 -2 18 -5z m-4083 -13 c0 -5 -13 -10 -30 -10 -16 0 -30 5
-30 10 0 6 14 10 30 10 17 0 30 -4 30 -10z m4330 0 c0 -13 -11 -13 -30 0 -12
8 -11 10 8 10 12 0 22 -4 22 -10z m-5580 -4 c0 -2 -8 -10 -17 -17 -16 -13 -17
-12 -4 4 13 16 21 21 21 13z m637 -8 c18 -7 33 -16 33 -21 0 -13 -56 -1 -83
18 -20 14 -20 15 -2 15 10 0 34 -5 52 -12z m5577 -31 c22 -34 46 -126 35 -132
-5 -4 -12 2 -16 12 -3 10 -21 51 -39 91 -28 62 -30 71 -13 62 10 -6 25 -21 33
-33z m-1184 23 c0 -5 -2 -10 -4 -10 -3 0 -8 5 -11 10 -3 6 -1 10 4 10 6 0 11
-4 11 -10z m2881 -41 c36 -63 51 -101 41 -111 -7 -7 -82 135 -82 158 0 12 19
-9 41 -47z m-6261 10 c0 -5 -4 -9 -10 -9 -5 0 -10 7 -10 16 0 8 5 12 10 9 6
-3 10 -10 10 -16z m6166 9 c5 -8 2 -9 -9 -5 -11 4 -17 1 -17 -9 0 -8 -4 -13
-10 -9 -13 8 -1 35 15 35 8 0 17 -5 21 -12z m-6691 -7 c3 -5 1 -12 -4 -15 -12
-8 -41 3 -41 15 0 12 37 12 45 0z m4445 -1 c0 -13 -11 -13 -30 0 -12 8 -11 10
8 10 12 0 22 -4 22 -10z m-546 -21 c-8 -14 -24 -10 -24 6 0 9 6 12 15 9 8 -4
12 -10 9 -15z m-3799 1 c-3 -5 -15 -10 -25 -10 -10 0 -22 5 -25 10 -4 6 7 10
25 10 18 0 29 -4 25 -10z m5720 -20 c-9 -16 -18 -30 -21 -30 -2 0 2 14 11 30
9 17 18 30 21 30 2 0 -2 -13 -11 -30z m-6375 0 c0 -5 -7 -10 -16 -10 -8 0 -12
5 -9 10 3 6 10 10 16 10 5 0 9 -4 9 -10z m65 0 c-27 -12 -35 -12 -35 0 0 6 12
10 28 9 24 0 25 -1 7 -9z m4901 0 c15 -6 25 -13 22 -15 -3 -3 -20 1 -39 9 -38
17 -25 21 17 6z m-5506 -4 c0 -3 -4 -8 -10 -11 -5 -3 -10 -1 -10 4 0 6 5 11
10 11 6 0 10 -2 10 -4z m3735 -27 c66 -31 73 -43 38 -73 -35 -31 -39 -32 -54
-3 -6 12 -20 29 -31 38 -15 11 -18 22 -13 37 8 27 5 27 60 1z m1243 12 c11 -7
11 -9 -1 -14 -16 -6 -27 0 -27 15 0 10 11 10 28 -1z m-3908 -11 c0 -5 -9 -10
-20 -10 -11 0 -20 5 -20 10 0 6 9 10 20 10 11 0 20 -4 20 -10z m-455 -10 c3
-5 1 -10 -4 -10 -6 0 -11 5 -11 10 0 6 2 10 4 10 3 0 8 -4 11 -10z m3807 -20
c4 -25 1 -30 -15 -30 -37 0 -152 24 -134 28 9 2 17 7 17 12 0 12 26 17 81 19
45 1 47 0 51 -29z m189 -5 c10 -16 18 -34 18 -38 1 -4 -27 -7 -61 -5 -57 3
-63 5 -60 23 10 59 73 71 103 20z m892 19 c9 -3 17 -10 17 -15 0 -12 3 -12
-55 11 -43 18 -45 20 -15 14 19 -3 43 -8 53 -10z m-5037 -46 c-8 -23 -15 -37
-16 -29 0 18 22 82 28 77 2 -2 -3 -24 -12 -48z m267 45 c-7 -2 -19 -2 -25 0
-7 3 -2 5 12 5 14 0 19 -2 13 -5z m442 -3 c-3 -5 -15 -10 -25 -10 -10 0 -22 5
-25 10 -4 6 7 10 25 10 18 0 29 -4 25 -10z m-627 -17 c-10 -2 -26 -2 -35 0
-10 3 -2 5 17 5 19 0 27 -2 18 -5z m4417 -3 c3 -5 2 -10 -4 -10 -5 0 -13 5
-16 10 -3 6 -2 10 4 10 5 0 13 -4 16 -10z m442 -6 c-3 -3 -12 -4 -19 -1 -8 3
-5 6 6 6 11 1 17 -2 13 -5z m87 -25 c19 -17 0 -16 -39 2 l-40 19 35 -6 c19 -3
39 -10 44 -15z m-4534 -4 c0 -8 -7 -15 -15 -15 -26 0 -18 20 13 29 1 1 2 -6 2
-14z m90 5 c8 -5 12 -12 8 -15 -9 -9 -48 4 -48 16 0 12 21 11 40 -1z m2797 4
c-3 -3 -12 -4 -19 -1 -8 3 -5 6 6 6 11 1 17 -2 13 -5z m1153 -27 c86 -26 387
-103 441 -112 27 -5 29 -4 19 14 -6 11 -28 26 -50 32 -53 16 -44 23 11 9 32
-8 54 -23 78 -51 30 -37 32 -43 21 -64 -10 -18 -12 -61 -7 -165 3 -79 1 -142
-4 -146 -5 -3 -9 -25 -9 -49 0 -35 3 -43 15 -39 20 8 21 -52 1 -63 -9 -5 -16
-28 -18 -63 -3 -58 -5 -60 -56 -44 -19 5 -24 1 -37 -30 -19 -44 -19 -46 0 -46
53 0 -33 -94 -121 -132 -56 -24 -62 -32 -66 -85 -1 -17 -6 -29 -11 -26 -5 3
-13 -1 -18 -8 -6 -11 -12 -9 -29 8 -15 17 -20 36 -20 78 0 56 -12 70 -34 40
-12 -15 -114 -29 -141 -19 -8 4 -15 12 -15 20 0 17 -20 19 -21 2 0 -7 0 -31 1
-54 1 -46 -18 -69 -49 -59 -23 7 -34 46 -30 112 2 30 -1 48 -9 51 -7 2 -12 -5
-12 -17 0 -25 -11 -26 -51 -5 -34 17 -34 37 -1 42 28 4 28 15 0 47 -22 26 -60
34 -57 13 3 -24 -1 -38 -11 -38 -5 0 -10 11 -10 24 0 43 -13 87 -24 83 -6 -2
-21 -1 -33 4 -23 8 -35 53 -35 136 0 31 -5 51 -15 58 -21 16 0 55 29 55 15 0
19 5 15 20 -3 11 -1 20 5 20 5 0 6 5 2 11 -3 6 -15 9 -25 6 -16 -4 -19 0 -19
28 0 18 9 52 19 76 21 45 14 62 -18 52 -9 -3 -1 4 17 16 18 12 37 21 42 21 6
0 10 5 10 12 0 6 10 22 22 35 l22 24 13 -23 c9 -17 12 -19 13 -7 0 21 19 29
45 18 16 -6 17 -8 3 -8 -16 -1 -20 -8 -32 -64 -6 -25 -5 -27 12 -18 33 18 112
104 119 129 3 13 15 28 27 33 17 7 13 9 -19 8 -61 -1 -63 -1 -75 22 -11 19 -9
20 17 18 37 -4 55 8 52 34 -3 43 1 59 14 54 6 -2 50 -16 97 -30z m277 27 c-3
-3 -12 -4 -19 -1 -8 3 -5 6 6 6 11 1 17 -2 13 -5z m549 -94 c-19 -51 -40 -98
-46 -104 -6 -6 -2 14 10 44 12 30 31 79 43 108 11 29 22 51 24 48 2 -2 -12
-45 -31 -96z m2324 84 c0 -8 -4 -12 -10 -9 -5 3 -10 10 -10 16 0 5 5 9 10 9 6
0 10 -7 10 -16z m-6995 -14 c-3 -5 -15 -10 -25 -10 -10 0 -22 5 -25 10 -4 6 7
10 25 10 18 0 29 -4 25 -10z m2535 -11 c0 -5 -4 -9 -10 -9 -5 0 -10 7 -10 16
0 8 5 12 10 9 6 -3 10 -10 10 -16z m230 -23 c-14 -14 -31 11 -22 32 4 12 7 12
19 -4 9 -12 10 -21 3 -28z m430 8 c0 -35 15 -59 61 -101 21 -19 39 -39 39 -44
0 -12 -52 15 -70 35 -10 13 -16 14 -27 5 -18 -15 -29 -4 -38 40 -5 24 -4 32 4
26 8 -5 10 1 5 19 -7 31 2 60 16 51 5 -3 10 -17 10 -31z m-500 -13 c0 -30 -14
-41 -56 -41 -17 0 -24 6 -24 19 0 27 27 51 56 51 20 0 24 -5 24 -29z m333 23
c13 -13 -7 -34 -32 -34 -33 0 -42 7 -34 26 5 14 54 20 66 8z m1301 -14 c20
-20 -2 -19 -40 1 l-39 21 35 -6 c19 -4 39 -11 44 -16z m1279 1 c-2 -10 -17
-45 -33 -77 l-29 -59 -1 39 c0 27 8 52 26 78 29 41 45 50 37 19z m-6927 -17
c-11 -8 -16 -14 -12 -14 5 0 3 -6 -3 -14 -6 -7 -9 -20 -6 -28 3 -7 -1 -22 -10
-33 -15 -20 -15 -20 -30 0 -15 19 -14 22 10 40 14 12 25 26 25 32 0 16 31 46
39 38 3 -4 -3 -13 -13 -21z m450 -18 c49 -18 98 -36 108 -40 10 -3 17 -8 14
-11 -2 -2 -47 12 -99 31 -120 46 -137 53 -123 53 7 1 52 -14 100 -33z m744 24
c0 -5 -6 -10 -14 -10 -8 0 -18 5 -21 10 -3 6 3 10 14 10 12 0 21 -4 21 -10z
m2982 -12 c-7 -7 -12 -8 -12 -2 0 14 12 26 19 19 2 -3 -1 -11 -7 -17z m560 6
c62 -8 115 -17 117 -20 17 -16 -133 -104 -178 -104 -11 0 -46 23 -78 52 -32
29 -60 53 -62 55 -2 1 -1 9 2 18 8 20 54 19 199 -1z m775 0 c-3 -3 -12 -4 -19
-1 -8 3 -5 6 6 6 11 1 17 -2 13 -5z m-4915 -36 c-8 -8 -9 -4 -5 13 4 13 8 18
11 10 2 -7 -1 -18 -6 -23z m698 22 c0 -13 -20 -13 -40 0 -12 8 -9 10 13 10 15
0 27 -4 27 -10z m2845 -1 c4 -6 -1 -17 -11 -24 -28 -21 -35 -18 -22 10 12 27
23 31 33 14z m2829 -56 c-26 -68 -34 -84 -34 -67 0 9 38 113 46 126 15 24 10
0 -12 -59z m-5029 47 c3 -5 -1 -10 -10 -10 -9 0 -13 5 -10 10 3 6 8 10 10 10
2 0 7 -4 10 -10z m7048 -5 c-3 -9 -8 -14 -10 -11 -3 3 -2 9 2 15 9 16 15 13 8
-4z m-7813 -5 c0 -5 -2 -10 -4 -10 -3 0 -8 5 -11 10 -3 6 -1 10 4 10 6 0 11
-4 11 -10z m7200 -18 c0 -15 -2 -15 -10 -2 -13 20 -13 33 0 25 6 -3 10 -14 10
-23z m-5020 14 c0 -3 -4 -8 -10 -11 -5 -3 -10 -1 -10 4 0 6 5 11 10 11 6 0 10
-2 10 -4z m1012 -10 c71 -22 87 -33 81 -56 -3 -12 0 -20 8 -20 7 0 10 -2 7 -5
-2 -3 -19 2 -37 11 -18 9 -65 21 -105 28 -70 10 -73 12 -65 34 10 26 41 29
111 8z m1364 -3 c4 -10 15 -37 25 -60 10 -24 19 -47 19 -52 0 -12 -56 -25 -70
-16 -17 11 -11 33 11 40 22 7 25 0 -27 80 -16 24 -16 25 10 25 17 0 29 -7 32
-17z m3224 12 c0 -2 -15 -12 -32 -20 l-33 -16 24 21 c22 19 41 26 41 15z
m-5155 -15 c-3 -5 -10 -10 -16 -10 -5 0 -9 5 -9 10 0 6 7 10 16 10 8 0 12 -4
9 -10z m-3169 -31 c8 -14 -10 -11 -32 6 -18 13 -18 14 4 8 12 -3 25 -9 28 -14z
m-586 -4 c13 -16 6 -35 -15 -35 -18 0 -28 17 -21 35 7 19 20 19 36 0z m1176
-59 c-33 -74 -57 -104 -77 -97 -14 5 -13 13 10 63 21 44 30 55 39 46 8 -8 14
-5 22 16 5 15 10 32 10 39 0 8 3 8 11 0 7 -7 2 -27 -15 -67z m2719 62 c3 -2
-6 -15 -20 -28 -14 -13 -25 -29 -25 -37 0 -7 -7 -13 -15 -13 -15 0 -77 -37
-107 -64 -10 -9 -18 -27 -18 -40 0 -26 -26 -60 -40 -51 -5 3 -11 36 -15 73 -3
37 -8 88 -11 114 l-6 47 44 3 c64 4 207 2 213 -4z m4945 8 c0 -3 -15 -14 -32
-26 l-33 -22 30 26 c31 27 35 29 35 22z m-8734 -20 c7 -18 -25 -68 -40 -63
-22 8 1 77 26 77 5 0 11 -6 14 -14z m3304 -20 c0 -19 -4 -37 -9 -40 -5 -3 -7
-14 -4 -25 3 -13 -2 -21 -19 -26 l-23 -8 22 -4 c14 -3 20 -9 16 -19 -3 -8 0
-21 7 -29 18 -21 2 -36 -33 -33 -34 3 -50 16 -39 32 13 21 10 61 -5 78 -10 11
-12 18 -5 18 7 0 12 16 12 38 0 47 4 52 47 52 31 0 33 -2 33 -34z m-1985 -91
c33 -34 72 -87 88 -118 15 -31 36 -61 47 -67 12 -6 18 -16 14 -22 -4 -7 -9 -7
-13 1 -4 6 -25 14 -46 16 -21 3 -88 25 -149 50 -60 25 -116 45 -122 45 -7 0
-15 4 -18 9 -4 5 11 7 34 4 45 -6 47 -3 24 32 -10 15 -12 25 -5 25 6 0 11 -6
11 -14 0 -7 10 -13 23 -13 18 0 23 5 22 25 0 36 18 37 58 2 20 -17 34 -25 33
-18 -3 24 -49 77 -88 103 -21 14 -38 30 -38 36 0 16 59 -29 125 -96z m2913 80
c20 -9 44 -24 52 -33 8 -10 36 -35 63 -56 42 -33 100 -117 80 -115 -5 0 -35
31 -68 68 -74 84 -102 100 -189 115 -38 7 -71 17 -74 24 -6 18 91 15 136 -3z
m-794 -14 c32 -35 39 -87 20 -142 -10 -27 -23 -49 -30 -49 -7 0 -20 -3 -29 -6
-15 -6 -16 1 -11 72 13 150 17 162 50 125z m2736 10 c0 -11 -111 -263 -147
-335 -41 -81 -131 -211 -186 -270 -54 -57 -76 -71 -57 -36 14 27 7 25 -26 -5
-29 -27 -50 -33 -37 -12 4 8 33 36 63 62 30 27 57 53 59 59 2 6 18 29 36 51
46 58 108 161 134 225 13 30 30 59 37 63 12 7 70 119 95 185 8 22 29 31 29 13z
m-6380 -23 c1 -32 103 -91 145 -85 41 7 228 -52 905 -281 179 -61 406 -137
505 -170 224 -75 312 -106 320 -113 7 -8 -14 -97 -24 -104 -9 -5 -178 54 -586
206 -489 181 -787 287 -860 305 -57 14 -68 15 -76 3 -8 -11 -12 -10 -27 7 -20
24 -94 48 -122 39 -12 -4 -20 -2 -20 5 0 6 -8 9 -18 6 -12 -4 -31 8 -62 40
-25 25 -60 54 -77 65 -33 20 -41 46 -27 83 9 24 24 19 24 -6z m8465 12 c3 -5
1 -10 -4 -10 -6 0 -11 5 -11 10 0 6 2 10 4 10 3 0 8 -4 11 -10z m-7095 -10 c0
-5 -4 -10 -10 -10 -5 0 -10 5 -10 10 0 6 5 10 10 10 6 0 10 -4 10 -10z m4758
-17 c-3 -31 -34 -44 -44 -19 -7 19 12 46 33 46 10 0 13 -9 11 -27z m-1477 -64
c35 -49 6 -32 -46 28 -48 55 -49 56 -12 29 21 -16 47 -42 58 -57z m4169 74 c0
-5 -15 -16 -33 -26 l-32 -17 30 25 c33 27 35 28 35 18z m-5930 -33 c12 -16 19
-30 16 -30 -2 0 -14 14 -26 30 -12 17 -19 30 -16 30 2 0 14 -13 26 -30z m850
-43 c0 -30 -4 -46 -10 -42 -5 3 -10 32 -10 63 0 41 3 53 10 42 5 -8 10 -37 10
-63z m675 36 c5 -19 2 -23 -14 -23 -12 0 -21 -5 -21 -10 0 -7 -6 -7 -20 0 -23
12 -27 35 -5 26 26 -10 46 4 39 28 -4 14 -3 18 4 11 5 -5 13 -20 17 -32z
m-405 -63 c-24 -33 -45 -59 -48 -56 -5 6 15 40 55 94 43 57 37 27 -7 -38z
m-55 39 c0 -7 -8 -15 -17 -17 -18 -3 -25 18 -11 32 10 10 28 1 28 -15z m805
-3 c0 -8 -5 -18 -10 -21 -17 -11 -40 3 -34 20 8 19 44 20 44 1z m1086 -21 c-1
-23 -26 -37 -26 -15 0 9 20 38 26 40 1 0 1 -11 0 -25z m-2857 -89 c34 -48 60
-90 58 -92 -3 -4 -107 143 -131 185 -20 36 15 -8 73 -93z m-2914 13 c33 -28
75 -59 95 -67 49 -21 150 -51 150 -45 0 3 -10 14 -22 24 -20 17 -20 19 -3 10
54 -26 58 -34 41 -75 -9 -21 -16 -46 -16 -56 0 -16 -3 -17 -44 -2 -39 14 -54
15 -123 3 -112 -18 -116 -33 -8 -26 74 5 86 4 70 -6 -27 -17 -170 -25 -179
-10 -14 21 -46 11 -67 -21 l-21 -33 6 70 c4 39 8 102 10 141 3 77 10 96 30 88
11 -4 12 3 6 35 -7 40 -1 66 10 37 3 -8 32 -38 65 -67z m3483 41 c-2 -22 0
-40 4 -40 5 0 8 -7 8 -15 0 -16 -25 -21 -35 -6 -5 9 15 101 23 101 2 0 2 -18
0 -40z m-2653 -143 c226 -75 529 -178 675 -228 146 -50 279 -95 297 -100 18
-5 35 -14 38 -18 3 -5 -14 -3 -38 4 -95 29 -394 129 -425 142 -28 12 -818 280
-936 317 -22 7 -42 19 -45 27 -3 11 -1 11 10 3 8 -6 199 -73 424 -147z m6978
126 c-7 -2 -21 -2 -30 0 -10 3 -4 5 12 5 17 0 24 -2 18 -5z m44 1 c-3 -3 -12
-4 -19 -1 -8 3 -5 6 6 6 11 1 17 -2 13 -5z m347 -15 c-8 -14 -24 -10 -24 6 0
9 6 12 15 9 8 -4 12 -10 9 -15z m-4344 -9 c0 -18 -36 -47 -46 -37 -4 4 34 57
42 57 2 0 4 -9 4 -20z m4302 -40 c2 -26 -1 -35 -14 -38 -23 -5 -32 32 -16 68
14 33 24 24 30 -30z m-4492 12 c0 -37 -15 -60 -24 -37 -8 21 -8 60 0 68 12 12
24 -4 24 -31z m944 11 c4 -9 0 -23 -8 -32 -14 -13 -16 -13 -22 2 -7 20 1 47
15 47 5 0 12 -8 15 -17z m1101 0 c7 -10 10 -32 8 -53 -5 -32 -1 -41 32 -74 53
-51 40 -54 -16 -3 -36 33 -47 51 -53 85 -9 59 4 79 29 45z m-3655 -48 c-7 -9
-15 -13 -17 -11 -7 7 7 26 19 26 6 0 6 -6 -2 -15z m1987 -7 c-3 -8 -6 -5 -6 6
-1 11 2 17 5 13 3 -3 4 -12 1 -19z m3788 -36 c-3 -3 -18 7 -33 23 l-27 28 33
-23 c18 -12 31 -25 27 -28z m-3765 18 c0 -5 -10 -15 -22 -21 -23 -12 -23 -12
-4 10 21 23 26 26 26 11z m-2404 -25 c17 -13 16 -14 -16 -3 -43 14 -49 18 -24
18 11 0 29 -7 40 -15z m2049 -5 c0 -8 -8 -16 -17 -18 -13 -2 -18 3 -18 18 0
15 5 20 18 18 9 -2 17 -10 17 -18z m4855 -5 c0 -7 10 -22 23 -32 30 -24 40
-50 21 -57 -20 -8 -44 3 -38 18 3 7 -2 26 -11 42 -17 33 -20 58 -5 49 6 -3 10
-12 10 -20z m-2625 -5 c7 -12 -16 -50 -31 -50 -18 0 -26 31 -13 46 13 16 35
18 44 4z m1941 -12 l19 -21 -27 18 c-29 18 -34 25 -20 25 5 0 17 -10 28 -22z
m991 0 c-3 -8 -6 -5 -6 6 -1 11 2 17 5 13 3 -3 4 -12 1 -19z m-9002 -18 c3 -5
-1 -10 -10 -10 -9 0 -13 5 -10 10 3 6 8 10 10 10 2 0 7 -4 10 -10z m8785 -21
c0 -5 -7 -9 -15 -9 -9 0 -15 9 -15 21 0 18 2 19 15 9 8 -7 15 -16 15 -21z
m-4802 -2 c5 -24 -24 -21 -31 4 -4 15 -1 19 11 17 9 -2 18 -11 20 -21z m4513
-8 c-11 -12 -23 -21 -28 -21 -4 1 -16 -7 -26 -15 -24 -22 -32 -10 -15 24 9 18
23 30 43 34 41 8 48 2 26 -22z m496 -26 c-14 -32 -16 -34 -16 -13 -1 41 10 73
22 61 6 -6 4 -22 -6 -48z m-926 30 c13 -16 12 -17 -3 -4 -10 7 -18 15 -18 17
0 8 8 3 21 -13z m164 7 c-3 -5 -13 -10 -21 -10 -8 0 -12 5 -9 10 3 6 13 10 21
10 8 0 12 -4 9 -10z m-7605 -10 c0 -5 -2 -10 -4 -10 -3 0 -8 5 -11 10 -3 6 -1
10 4 10 6 0 11 -4 11 -10z m2581 -55 l10 -20 -16 20 c-9 11 -21 29 -26 40
l-10 20 16 -20 c9 -11 21 -29 26 -40z m657 38 c-2 -11 -14 -19 -31 -21 -22 -3
-27 1 -27 17 0 17 6 21 31 21 24 0 30 -4 27 -17z m4243 -10 c13 -16 12 -17 -3
-4 -10 7 -18 15 -18 17 0 8 8 3 21 -13z m-7471 -8 c7 -8 39 -20 71 -27 32 -7
59 -16 59 -21 0 -5 -7 -7 -15 -3 -9 3 -51 9 -95 12 -79 7 -94 16 -68 42 16 16
33 15 48 -3z m-300 -15 c0 -11 -4 -20 -10 -20 -5 0 -10 9 -10 20 0 11 5 20 10
20 6 0 10 -9 10 -20z m7848 -15 c22 6 52 -17 52 -41 0 -22 -33 -16 -59 11 -13
14 -27 25 -32 25 -5 0 -9 5 -9 11 0 8 4 8 15 -1 8 -6 23 -9 33 -5z m699 -15
c7 -13 20 -27 30 -31 11 -4 1 -7 -25 -7 -37 -1 -45 3 -55 26 -6 15 -16 31 -22
35 -5 4 6 6 25 5 25 -2 38 -10 47 -28z m-8449 3 c-5 -25 -28 -28 -28 -4 0 12
6 21 16 21 9 0 14 -7 12 -17z m4258 -56 c-50 -113 -171 -188 -306 -189 -74 -1
-133 10 -125 22 3 5 22 4 43 -2 59 -16 146 -4 218 32 35 17 64 35 64 41 0 5
12 10 28 10 23 2 24 2 5 6 -28 5 -30 23 -4 23 22 0 51 25 51 43 0 7 -4 6 -10
-3 -8 -13 -11 -12 -24 5 -14 19 -15 19 -35 1 -11 -10 -22 -30 -24 -45 l-3 -26
-12 28 c-15 36 -3 60 39 77 23 10 36 10 49 3 20 -13 32 -7 50 27 24 46 21 3
-4 -53z m-4206 53 c0 -5 -4 -10 -10 -10 -5 0 -10 5 -10 10 0 6 5 10 10 10 6 0
10 -4 10 -10z m9446 -12 c-3 -13 -6 -47 -6 -75 0 -42 -3 -53 -16 -53 -14 0
-16 8 -10 53 3 28 6 62 6 75 0 14 6 22 16 22 12 0 15 -6 10 -22z m-6119 -10
c-3 -8 -6 -5 -6 6 -1 11 2 17 5 13 3 -3 4 -12 1 -19z m83 18 c0 -2 -7 -6 -15
-10 -8 -3 -15 -1 -15 4 0 6 7 10 15 10 8 0 15 -2 15 -4z m30 -6 c0 -5 -2 -10
-4 -10 -3 0 -8 5 -11 10 -3 6 -1 10 4 10 6 0 11 -4 11 -10z m-2239 -27 c-8
-15 -10 -15 -11 -2 0 17 10 32 18 25 2 -3 -1 -13 -7 -23z m7296 21 c-3 -3 -12
-4 -19 -1 -8 3 -5 6 6 6 11 1 17 -2 13 -5z m-5507 -84 c16 -32 34 -61 40 -65
5 -3 10 -11 10 -16 0 -16 -56 53 -79 98 -23 47 -26 57 -11 48 6 -4 24 -33 40
-65z m-2840 40 c0 -5 17 -12 38 -16 66 -11 145 -33 154 -42 5 -5 -46 1 -114
14 -68 13 -139 24 -158 25 -19 0 -44 4 -55 9 -13 5 3 7 41 3 40 -4 64 -2 68 6
9 13 26 15 26 1z m1580 -5 c33 -19 21 -19 -21 0 -19 8 -27 14 -19 14 8 0 26
-6 40 -14z m-1477 -2 c-7 -2 -21 -2 -30 0 -10 3 -4 5 12 5 17 0 24 -2 18 -5z
m3081 -28 c5 -22 4 -26 -4 -15 -5 8 -10 24 -10 34 0 26 6 18 14 -19z m-3764
11 c0 -16 -18 -31 -27 -22 -8 8 5 36 17 36 5 0 10 -6 10 -14z m4380 -7 c0 -11
5 -17 10 -14 6 3 10 -3 10 -13 0 -11 8 -23 18 -27 13 -5 9 -10 -22 -23 -33
-13 -36 -17 -20 -22 12 -5 -4 -10 -48 -15 -43 -5 -79 -3 -99 4 -18 6 -43 11
-55 11 -13 0 -24 5 -24 10 0 6 8 10 17 10 9 0 36 20 60 45 24 25 48 43 53 40
6 -3 10 -1 10 4 0 6 20 11 45 11 39 0 45 -3 45 -21z m-4206 -36 c-11 -31 -32
-41 -40 -19 -9 23 24 72 39 57 7 -7 8 -20 1 -38z m2098 19 c40 -16 82 -32 92
-36 10 -3 17 -9 14 -12 -5 -4 -176 61 -187 71 -9 10 11 4 81 -23z m4641 21
c-7 -2 -19 -2 -25 0 -7 3 -2 5 12 5 14 0 19 -2 13 -5z m270 -10 c-7 -2 -21 -2
-30 0 -10 3 -4 5 12 5 17 0 24 -2 18 -5z m80 0 c-13 -2 -33 -2 -45 0 -13 2 -3
4 22 4 25 0 35 -2 23 -4z m1552 -3 c3 -5 1 -10 -4 -10 -6 0 -11 5 -11 10 0 6
2 10 4 10 3 0 8 -4 11 -10z m-3045 -9 c0 -13 -26 -32 -33 -24 -14 13 -6 33 13
33 11 0 20 -4 20 -9z m-5270 -11 c0 -5 -7 -7 -15 -4 -8 4 -15 8 -15 10 0 2 7
4 15 4 8 0 15 -4 15 -10z m9306 -40 c-1 -16 -5 -30 -9 -30 -12 0 -20 28 -13
45 9 26 23 16 22 -15z m-9043 -17 c-7 -2 -19 -2 -25 0 -7 3 -2 5 12 5 14 0 19
-2 13 -5z m224 1 c-3 -3 -12 -4 -19 -1 -8 3 -5 6 6 6 11 1 17 -2 13 -5z m-56
-34 c92 -27 51 -23 -61 5 -58 15 -77 23 -49 19 26 -2 75 -13 110 -24z m106 24
c-3 -3 -12 -4 -19 -1 -8 3 -5 6 6 6 11 1 17 -2 13 -5z m1558 -12 c-3 -3 -11 0
-18 7 -9 10 -8 11 6 5 10 -3 15 -9 12 -12z m2059 3 c15 -8 35 -15 42 -15 10 0
13 -8 10 -26 -3 -15 -8 -29 -11 -32 -8 -9 -25 20 -18 31 7 12 -28 36 -54 37
-13 0 -23 5 -23 10 0 14 20 12 54 -5z m-3577 -1 c-3 -3 -12 -4 -19 -1 -8 3 -5
6 6 6 11 1 17 -2 13 -5z m8778 -37 c-15 -94 -27 -127 -46 -127 -10 0 -19 2
-19 5 0 11 39 145 45 155 12 20 25 -1 20 -33z m-8577 -7 c171 -41 336 -89 330
-95 -3 -4 -487 119 -513 129 -34 14 37 1 183 -34z m7000 8 c4 -35 -21 -38 -55
-6 -32 30 -29 40 15 36 32 -3 37 -7 40 -30z m252 22 c0 -5 -2 -10 -4 -10 -3 0
-8 5 -11 10 -3 6 -1 10 4 10 6 0 11 -4 11 -10z m-3875 -31 c12 -12 3 -11 -50
2 -25 6 -43 15 -40 19 6 9 75 -7 90 -21z m3335 16 c-7 -8 -17 -15 -23 -15 -6
0 -2 7 9 15 25 19 30 19 14 0z m-4589 -22 c13 -16 12 -17 -3 -4 -10 7 -18 15
-18 17 0 8 8 3 21 -13z m-1771 -29 c58 -19 88 -32 67 -29 -39 6 -201 63 -182
64 6 1 57 -15 115 -35z m1117 30 c-3 -3 -12 -4 -19 -1 -8 3 -5 6 6 6 11 1 17
-2 13 -5z m1843 -29 c10 -12 9 -16 -5 -21 -9 -4 -21 -2 -28 5 -14 14 -64 15
-72 1 -9 -14 -37 -12 -33 3 9 25 119 35 138 12z m3350 6 c0 -5 -10 -11 -22
-14 -22 -6 -22 -6 -4 8 23 17 26 18 26 6z m-3820 -15 c0 -15 -24 -28 -34 -19
-13 14 -5 33 14 33 11 0 20 -6 20 -14z m-912 -18 c18 -18 16 -44 -2 -29 -18
15 -40 -11 -31 -39 4 -11 2 -20 -4 -20 -14 0 -14 40 -1 74 11 29 20 32 38 14z
m2647 -8 c-10 -11 -21 -18 -23 -15 -3 3 3 12 14 20 27 20 30 18 9 -5z m-1395
-19 c0 -13 -58 -19 -105 -12 -39 6 -39 6 20 12 33 3 66 6 73 7 6 1 12 -2 12
-7z m1355 -1 c3 -5 1 -10 -4 -10 -6 0 -11 5 -11 10 0 6 2 10 4 10 3 0 8 -4 11
-10z m-1655 -20 c-74 -3 -144 -3 -155 0 -28 7 191 16 245 10 27 -3 -10 -7 -90
-10z m340 0 c-14 -11 -51 -28 -82 -37 -49 -14 -58 -20 -58 -40 0 -28 -9 -29
-57 -2 -35 20 -47 21 -200 15 -96 -3 -163 -2 -163 3 0 16 29 19 231 26 167 6
206 11 260 30 83 29 101 30 69 5z m170 5 c0 -8 -7 -15 -15 -15 -26 0 -18 20
13 29 1 1 2 -6 2 -14z m1097 -10 c-29 -26 -47 -32 -47 -16 0 13 41 41 60 41
10 -1 6 -9 -13 -25z m-2507 -8 c0 13 19 14 298 15 101 0 186 -3 189 -6 8 -7
18 -7 -200 -6 -201 1 -228 -5 -243 -54 -6 -22 -14 -30 -28 -28 -12 2 -16 -1
-10 -9 4 -8 3 -10 -4 -5 -15 9 -3 38 14 32 16 -6 18 3 5 23 -5 8 -16 11 -25 8
-10 -4 -19 -1 -22 8 -7 18 -30 20 -37 3 -3 -7 -6 -2 -6 11 -1 16 3 22 14 18 8
-4 17 -2 21 4 3 6 11 3 20 -8 7 -10 14 -13 14 -6z m-180 3 c0 -5 -2 -10 -4
-10 -3 0 -8 5 -11 10 -3 6 -1 10 4 10 6 0 11 -4 11 -10z m5182 -6 c4 -3 0 -17
-8 -32 -8 -15 -14 -33 -14 -39 0 -7 -4 -13 -10 -13 -13 0 -13 17 1 25 5 4 9
17 8 28 -2 36 6 48 23 31z m1546 -60 c3 -35 -39 -135 -94 -221 -40 -64 -51
-74 -71 -66 -21 8 -16 28 27 96 33 52 45 64 61 60 18 -5 19 -3 8 19 -9 21 -7
36 12 87 26 67 52 79 57 25z m-6019 17 c12 -8 10 -11 -10 -15 -22 -4 -366 -20
-396 -17 -7 0 -24 1 -38 2 -14 1 -24 7 -22 13 6 20 438 35 466 17z m-539 -18
c-1 -18 -18 -35 -24 -24 -4 6 -4 16 -1 21 7 12 25 13 25 3z m5263 -5 c-4 -7
-8 -19 -9 -26 -3 -18 -14 -29 -14 -13 0 7 -4 10 -9 6 -5 -3 -12 -1 -16 5 -3 5
1 10 10 10 9 0 14 4 11 9 -4 5 0 12 6 14 23 9 29 7 21 -5z m-2888 -18 c-10
-16 -81 -50 -159 -76 -68 -23 -107 -26 -50 -3 16 6 49 20 74 32 36 16 122 52
138 56 2 1 0 -4 -3 -9z m1787 -130 c160 -339 477 -605 831 -695 477 -121 953
7 1321 354 42 40 53 47 37 24 -44 -65 -205 -194 -337 -271 -221 -128 -521
-196 -769 -172 -209 19 -313 48 -500 140 -291 143 -511 383 -625 682 -20 54
-27 93 -8 48 6 -14 28 -63 50 -110z m812 81 c-4 -17 -9 -30 -11 -27 -3 2 -2
19 2 36 9 41 17 33 9 -9z m-5111 -8 c15 -7 27 -16 27 -18 0 -6 -62 19 -87 35
-15 9 -14 10 7 4 14 -3 37 -13 53 -21z m-2400 -24 c45 -12 97 -30 115 -41 28
-17 45 -20 105 -16 40 3 79 3 86 0 19 -7 -121 -52 -179 -57 -25 -3 -70 -12
-100 -21 -30 -9 -73 -17 -94 -18 -34 -1 -40 2 -46 24 -8 29 10 150 22 150 5 0
46 -9 91 -21z m2634 -15 c-3 -3 -12 -4 -19 -1 -8 3 -5 6 6 6 11 1 17 -2 13 -5z
m828 -3 c44 -6 213 -13 375 -16 302 -6 350 -10 350 -26 0 -5 -132 -9 -322 -9
-271 1 -329 3 -363 17 -22 8 -75 18 -117 22 -42 3 -80 9 -84 14 -10 10 65 9
161 -2z m4140 -1 c-27 -12 -43 -12 -25 0 8 5 22 9 30 9 10 0 8 -3 -5 -9z
m-4875 -10 c11 -7 5 -8 -20 -4 -43 8 -51 14 -19 14 13 0 31 -5 39 -10z m560 6
c0 -3 -4 -8 -10 -11 -5 -3 -10 -1 -10 4 0 6 5 11 10 11 6 0 10 -2 10 -4z
m1350 -6 c-19 -13 -30 -13 -30 0 0 6 10 10 23 10 18 0 19 -2 7 -10z m-100 -20
c-20 -13 -63 -13 -55 0 3 6 21 10 38 10 24 0 28 -3 17 -10z m3015 0 c-3 -5
-12 -10 -18 -10 -7 0 -6 4 3 10 19 12 23 12 15 0z m-8299 -47 c68 -118 209
-270 343 -371 220 -165 561 -268 821 -247 270 21 485 101 703 261 20 15 40 25
43 21 7 -7 -99 -86 -176 -131 -86 -50 -220 -105 -327 -133 -135 -35 -365 -43
-514 -19 -372 62 -718 297 -901 614 -16 29 -27 52 -25 52 3 0 18 -21 33 -47z
m8407 18 c5 0 6 -5 2 -10 -5 -9 -61 1 -72 13 -4 4 44 2 70 -3z m-4609 -42 c-6
-11 -24 -2 -24 11 0 5 7 7 15 4 8 -4 12 -10 9 -15z m-2339 -17 c-3 -3 -11 0
-18 7 -9 10 -8 11 6 5 10 -3 15 -9 12 -12z m42 2 c-3 -3 -12 -4 -19 -1 -8 3
-5 6 6 6 11 1 17 -2 13 -5z m371 -42 c10 -7 10 -15 -2 -42 l-14 -34 -16 33
c-23 43 -5 66 32 43z m66 -53 c-8 -14 -34 -11 -34 4 0 8 3 17 7 20 9 9 34 -13
27 -24z m7721 21 c9 -15 -96 -139 -117 -140 -19 0 -4 33 37 81 25 29 45 56 45
61 0 12 28 10 35 -2z m-9330 -139 c-8 -13 -35 -15 -35 -2 0 5 8 11 18 13 21 5
26 2 17 -11z m7386 2 c13 -16 12 -17 -3 -4 -10 7 -18 15 -18 17 0 8 8 3 21
-13z m-5728 -25 c-13 -12 -26 -18 -30 -14 -4 4 1 14 11 22 31 22 43 17 19 -8z
m7534 5 c4 -11 -4 -26 -28 -46 -75 -64 -99 -79 -115 -73 -12 5 -1 21 52 71 38
35 73 64 77 65 4 0 11 -8 14 -17z m-1697 -73 c19 -17 30 -30 25 -30 -6 0 -26
14 -45 30 -19 16 -30 30 -25 30 6 -1 26 -14 45 -30z m-7340 -27 c0 -7 -39 17
-46 28 -3 6 5 3 20 -6 14 -10 26 -19 26 -22z m1300 -7 c0 -11 -71 -46 -81 -40
-8 4 -9 3 -5 -5 18 -28 -321 -154 -404 -150 -20 1 -18 3 10 9 l35 7 -37 2
c-42 1 -50 16 -16 27 25 8 102 7 129 -1 10 -4 27 -2 36 4 17 10 17 10 1 11
-36 0 -16 19 36 34 67 20 66 20 66 -1 0 -14 2 -14 20 2 11 10 20 24 20 32 0 8
5 11 10 8 6 -3 10 -3 10 2 0 4 21 17 46 27 34 14 48 16 53 7 6 -9 14 -6 32 8
23 19 39 26 39 17z m-1135 -80 c11 -9 -10 -2 -47 16 -38 18 -68 36 -68 40 0
10 85 -33 115 -56z m7394 -16 c13 0 21 -8 23 -22 2 -17 10 -23 28 -23 43 -1
111 -28 121 -47 8 -14 14 -16 23 -9 19 16 165 -18 177 -41 10 -19 39 -25 39
-8 0 6 44 9 108 8 59 0 137 3 174 7 58 6 69 5 74 -9 8 -22 27 -20 49 4 9 10
42 27 73 35 49 15 56 15 70 1 9 -9 14 -18 11 -20 -2 -2 -60 -19 -129 -37 -113
-29 -139 -33 -270 -33 -155 0 -226 10 -360 51 -138 41 -333 145 -345 184 -4
10 -11 19 -16 19 -5 0 -9 4 -9 9 0 6 31 -8 70 -30 38 -21 78 -39 89 -39z
m1303 55 c2 -14 -92 -77 -109 -73 -27 6 -16 23 33 56 48 31 74 37 76 17z
m-8554 -76 c38 -14 9 -30 -32 -17 -17 5 -39 12 -48 15 -10 3 -18 10 -18 15 0
11 54 4 98 -13z m242 1 c0 -5 -4 -10 -10 -10 -5 0 -10 5 -10 10 0 6 5 10 10
10 6 0 10 -4 10 -10z m8160 -10 c9 -17 4 -22 -46 -45 -67 -30 -109 -41 -117
-28 -11 18 1 25 150 92 1 1 7 -8 13 -19z m-8217 -26 c28 -6 35 -18 17 -29 -6
-4 -36 -1 -68 5 -77 15 -84 18 -76 31 6 10 50 8 127 -7z m273 -16 c4 -5 5 -10
3 -12 -5 -5 -148 -10 -194 -7 l-30 1 25 15 c26 15 181 17 196 3z m11 -34 c-3
-3 -12 -4 -19 -1 -8 3 -5 6 6 6 11 1 17 -2 13 -5z m6894 -157 c7 -11 6 -17 -1
-17 -13 0 -140 57 -140 63 0 13 133 -31 141 -46z m83 -32 c3 -9 0 -15 -9 -15
-16 0 -27 14 -18 24 10 10 21 7 27 -9z m66 -15 c0 -22 -7 -25 -29 -11 -16 10
-6 31 15 31 8 0 14 -9 14 -20z m121 -22 c4 -7 14 -6 27 1 12 6 23 7 26 2 7
-11 -27 -21 -71 -21 -33 0 -49 13 -38 30 7 12 46 3 56 -12z"/>
<path d="M9458 6073 c34 -2 90 -2 125 0 34 2 6 3 -63 3 -69 0 -97 -1 -62 -3z"/>
<path d="M9328 6063 c12 -2 32 -2 45 0 12 2 2 4 -23 4 -25 0 -35 -2 -22 -4z"/>
<path d="M7635 5815 c-30 -18 -35 -24 -20 -25 19 0 85 34 85 45 0 12 -28 3
-65 -20z"/>
<path d="M8704 4977 c-6 -7 -13 -24 -17 -37 l-6 -25 19 25 c25 32 29 65 4 37z"/>
<path d="M8735 4948 c-13 -32 -10 -58 5 -41 10 11 23 73 15 73 -3 0 -12 -15
-20 -32z"/>
<path d="M8786 4944 c-11 -27 -7 -37 9 -24 16 14 20 40 6 40 -5 0 -12 -7 -15
-16z"/>
<path d="M9028 4953 c7 -3 16 -2 19 1 4 3 -2 6 -13 5 -11 0 -14 -3 -6 -6z"/>
<path d="M9098 4933 c7 -3 16 -2 19 1 4 3 -2 6 -13 5 -11 0 -14 -3 -6 -6z"/>
<path d="M8761 4891 c-10 -6 -10 -10 -1 -16 13 -8 24 -1 19 14 -3 6 -10 7 -18
2z"/>
<path d="M8793 4855 c-47 -48 -68 -86 -60 -108 3 -8 27 -20 54 -26 82 -22 115
-33 110 -38 -3 -2 -32 3 -65 11 -33 9 -66 16 -73 15 -34 -1 163 -59 251 -73
28 -5 22 -1 -25 19 -33 14 -49 23 -35 20 69 -15 163 -26 176 -21 8 3 14 12 14
21 0 9 7 27 16 40 18 27 14 31 -36 37 -18 2 -28 12 -34 34 -12 39 -45 57 -161
89 -49 14 -90 25 -90 24 0 0 -19 -20 -42 -44z"/>
<path d="M9127 4867 c-9 -37 -3 -90 10 -94 18 -6 35 44 28 78 -8 35 -32 45
-38 16z"/>
<path d="M6043 4953 c9 -2 23 -2 30 0 6 3 -1 5 -18 5 -16 0 -22 -2 -12 -5z"/>
<path d="M10989 4643 c-13 -16 -12 -17 4 -4 16 13 21 21 13 21 -2 0 -10 -8
-17 -17z"/>
<path d="M7908 4393 c7 -3 16 -2 19 1 4 3 -2 6 -13 5 -11 0 -14 -3 -6 -6z"/>
<path d="M7763 4035 c-3 -9 -3 -18 -1 -21 3 -3 8 4 11 16 6 23 -1 27 -10 5z"/>
<path d="M4060 4266 c0 -14 29 -31 38 -21 6 6 -18 35 -29 35 -5 0 -9 -6 -9
-14z"/>
<path d="M3905 4180 c3 -5 11 -10 16 -10 6 0 7 5 4 10 -3 6 -11 10 -16 10 -6
0 -7 -4 -4 -10z"/>
<path d="M8573 3765 c18 -10 26 -22 23 -31 -3 -8 -1 -14 4 -14 6 0 10 7 10 16
0 13 7 15 38 10 36 -6 36 -6 12 8 -14 7 -45 17 -70 20 l-45 7 28 -16z"/>
<path d="M8885 3770 c-3 -4 2 -11 11 -14 19 -7 69 -8 62 -1 -11 11 -68 23 -73
15z"/>
<path d="M8970 3751 c0 -5 7 -11 14 -14 10 -4 13 -1 9 9 -6 15 -23 19 -23 5z"/>
<path d="M8592 3689 c2 -6 7 -10 11 -10 4 1 21 1 38 1 17 0 28 4 24 10 -8 14
-78 13 -73 -1z"/>
<path d="M8702 3668 c13 -13 40 -29 59 -35 43 -16 49 -16 49 -3 0 6 -8 10 -17
10 -10 0 -38 11 -62 25 -53 31 -61 32 -29 3z"/>
<path d="M9080 3585 c0 -55 5 -107 10 -115 7 -10 10 17 10 85 0 55 -5 107 -10
115 -7 10 -10 -17 -10 -85z"/>
<path d="M8624 3646 c-3 -13 -4 -37 -2 -52 3 -25 7 -29 33 -29 34 0 48 32 21
47 -9 5 -21 18 -27 30 -7 13 -7 18 -1 14 6 -3 13 -2 17 4 3 5 -3 10 -14 10
-13 0 -23 -8 -27 -24z"/>
<path d="M8501 3639 c-14 -5 -32 -9 -40 -8 -30 3 -37 -1 -55 -32 -14 -23 -15
-33 -7 -39 9 -5 1 -25 -27 -69 -23 -35 -43 -57 -47 -51 -22 36 -61 -82 -49
-149 13 -77 36 -141 50 -141 8 0 14 7 14 16 0 9 8 23 18 30 15 12 14 13 -10
14 -34 0 -37 17 -5 29 24 9 47 -3 47 -24 0 -8 13 -27 29 -43 36 -36 89 -46
136 -26 21 9 42 11 57 6 34 -12 213 -5 240 9 13 6 37 27 55 46 26 28 38 34 65
31 31 -3 33 -1 42 40 7 32 5 58 -9 109 -15 56 -26 74 -69 114 -28 27 -54 49
-57 49 -3 0 -10 -10 -16 -23 -8 -18 -6 -29 13 -57 38 -55 18 -48 -49 17 -68
67 -102 82 -147 63 -24 -10 -36 -10 -60 0 -25 10 -38 9 -79 -6 -49 -17 -51
-17 -71 1 l-21 19 28 26 c15 14 39 33 53 43 27 19 11 22 -29 6z m-73 -199
c-34 -54 -48 -59 -28 -10 10 24 44 60 57 60 1 0 -12 -23 -29 -50z m325 -117
c-13 -2 -35 -2 -50 0 -16 2 -5 4 22 4 28 0 40 -2 28 -4z m87 -7 c0 -9 -39 -13
-51 -5 -10 6 -4 9 19 9 17 0 32 -2 32 -4z m-333 -38 c-3 -8 -6 -5 -6 6 -1 11
2 17 5 13 3 -3 4 -12 1 -19z m162 4 c9 -16 6 -19 -19 -20 -17 0 -30 4 -30 9 0
5 7 9 15 9 8 0 15 5 15 10 0 16 8 12 19 -8z m131 -1 c0 -10 -24 -21 -48 -21
-13 0 -12 3 4 15 21 16 44 19 44 6z m35 -11 c3 -5 -1 -10 -10 -10 -9 0 -13 5
-10 10 3 6 8 10 10 10 2 0 7 -4 10 -10z m-242 -7 c-13 -2 -33 -2 -45 0 -13 2
-3 4 22 4 25 0 35 -2 23 -4z"/>
<path d="M8260 3575 c-6 -8 -10 -22 -8 -32 3 -13 7 -9 15 15 13 35 12 39 -7
17z"/>
<path d="M8620 3005 c-6 -8 -9 -19 -5 -25 8 -12 45 -13 64 -1 12 8 12 12 2 25
-17 20 -45 21 -61 1z"/>
<path d="M8895 2980 c-3 -5 -1 -10 4 -10 6 0 11 5 11 10 0 6 -2 10 -4 10 -3 0
-8 -4 -11 -10z"/>
<path d="M8850 2960 c-8 -5 -12 -11 -9 -14 3 -3 14 1 25 9 21 16 8 20 -16 5z"/>
<path d="M4900 3534 c0 -5 20 -45 26 -53 8 -9 35 31 30 44 -5 14 -56 22 -56 9z"/>
<path d="M4958 3473 c7 -3 16 -2 19 1 4 3 -2 6 -13 5 -11 0 -14 -3 -6 -6z"/>
<path d="M7658 3053 c7 -3 16 -2 19 1 4 3 -2 6 -13 5 -11 0 -14 -3 -6 -6z"/>
<path d="M4131 2650 c0 -33 1 -34 11 -12 8 17 8 26 0 34 -9 9 -12 4 -11 -22z"/>
<path d="M4718 2073 c7 -3 16 -2 19 1 4 3 -2 6 -13 5 -11 0 -14 -3 -6 -6z"/>
<path d="M11395 2120 c3 -5 8 -10 11 -10 2 0 4 5 4 10 0 6 -5 10 -11 10 -5 0
-7 -4 -4 -10z"/>
<path d="M9403 7337 c-89 -52 -81 -50 -211 -45 -141 6 -164 -3 -176 -66 -15
-81 47 -144 109 -112 17 8 70 18 118 22 73 5 91 4 106 -10 22 -20 94 -22 180
-6 45 8 66 9 74 1 18 -18 36 -12 51 18 13 24 20 28 51 25 19 -1 35 2 35 7 0 5
-30 9 -66 9 -64 0 -104 11 -104 30 0 5 12 11 28 13 l27 4 -27 2 c-36 1 -35 12
2 39 53 40 17 65 -110 76 -42 3 -73 1 -87 -7z"/>
<path d="M10525 7258 c-8 -18 -22 -44 -32 -58 -9 -14 4 -5 30 20 48 45 59 70
32 70 -8 0 -21 -15 -30 -32z"/>
<path d="M10875 7192 c-3 -11 -23 -43 -45 -72 -40 -54 -51 -90 -27 -90 15 0
77 104 87 148 8 34 -4 46 -15 14z"/>
<path d="M9663 7098 c-36 -25 -37 -35 -6 -55 17 -12 23 -11 43 5 18 14 22 25
16 45 -8 33 -13 33 -53 5z"/>
<path d="M11240 6560 c0 -5 12 -10 28 -10 21 0 24 2 12 10 -20 13 -40 13 -40
0z"/>
<path d="M11353 6495 c-6 -15 -7 -22 -1 -19 6 4 14 0 19 -7 7 -12 9 -11 8 1 0
8 -3 23 -7 32 -6 15 -9 14 -19 -7z"/>
<path d="M11264 6154 c-4 -15 -2 -35 5 -45 6 -10 11 -26 11 -36 0 -40 19 6 21
52 3 40 0 50 -13 53 -12 2 -20 -6 -24 -24z"/>
<path d="M2625 5879 c-3 -5 -1 -17 5 -28 7 -13 7 -22 0 -26 -16 -10 -12 -25 5
-19 8 4 15 16 15 28 0 12 5 27 11 33 7 7 4 12 -10 16 -12 3 -23 1 -26 -4z"/>
<path d="M11808 5426 c-54 -7 -104 -19 -113 -26 -20 -16 -19 -35 6 -163 17
-82 27 -110 41 -118 12 -7 24 -7 31 -1 21 16 266 34 382 27 126 -7 287 -35
409 -70 117 -34 262 -98 286 -126 36 -42 50 -85 39 -121 -16 -56 -12 -69 15
-62 18 4 44 -6 98 -36 40 -24 82 -51 93 -61 17 -15 24 -16 44 -6 39 19 35 32
-24 72 -30 21 -55 42 -55 46 0 4 -10 9 -22 13 -13 3 -37 18 -55 35 -18 16 -37
31 -43 33 -5 1 -12 13 -15 26 -5 26 12 29 41 7 28 -21 43 -18 66 11 42 53 90
5 53 -52 -16 -24 -16 -26 1 -22 19 3 164 183 164 203 0 63 -330 242 -592 321
-197 59 -309 75 -538 79 -141 3 -249 -1 -312 -9z m232 -117 l5 -94 63 -3 c85
-4 85 -27 1 -36 -119 -12 -109 -22 -109 107 0 63 3 117 7 121 19 19 28 -9 33
-95z m-110 69 c0 -13 -11 -44 -24 -70 -18 -36 -23 -57 -19 -92 5 -41 3 -46
-15 -46 -17 0 -21 9 -27 49 -5 37 -15 56 -41 82 -19 19 -34 43 -34 56 0 35 32
29 50 -10 27 -57 47 -47 74 36 8 25 36 21 36 -5z m281 -11 c4 -16 13 -35 20
-43 10 -13 15 -12 36 7 12 13 23 31 23 41 0 11 7 18 20 18 30 0 25 -28 -15
-84 -27 -38 -35 -59 -35 -93 0 -36 -3 -43 -20 -43 -17 0 -20 7 -20 50 0 38 -7
61 -31 100 -32 52 -33 84 -2 78 9 -2 20 -16 24 -31z m380 -27 c38 -11 71 -25
74 -30 3 -5 -12 -29 -34 -53 -22 -23 -51 -66 -65 -94 -21 -41 -30 -50 -46 -46
-11 3 -20 7 -20 9 0 18 37 85 66 121 25 30 31 45 22 48 -7 3 -31 11 -53 18
-41 14 -61 47 -29 47 9 0 48 -9 85 -20z m234 -92 c22 -26 25 -37 20 -67 -15
-84 -78 -139 -136 -119 -61 21 -73 72 -36 148 37 76 106 93 152 38z m-1010
-64 c0 -32 -4 -40 -22 -42 -17 -3 -20 1 -16 16 2 11 0 23 -7 27 -8 5 -6 13 6
26 25 28 39 18 39 -27z m1150 17 c3 -5 -5 -26 -17 -46 l-21 -37 24 -19 c36
-28 64 -24 79 11 15 36 23 42 44 34 13 -5 7 -23 -37 -105 -35 -67 -58 -99 -69
-99 -22 0 -23 28 -3 54 22 29 18 44 -15 61 -40 21 -43 20 -64 -20 -18 -33 -35
-43 -49 -28 -10 9 94 203 109 203 7 0 15 -4 19 -9z m-64 -221 c21 -12 26 -50
6 -50 -17 0 -59 44 -50 53 9 10 21 9 44 -3z"/>
<path d="M12731 5213 c-59 -74 -21 -153 41 -85 30 34 37 79 16 100 -19 19 -35
14 -57 -15z"/>
<path d="M3570 5182 c0 -14 36 -43 43 -35 12 11 8 23 -8 23 -8 0 -15 5 -15 10
0 6 -4 10 -10 10 -5 0 -10 -4 -10 -8z"/>
<path d="M3335 5087 c-141 -73 -191 -106 -301 -198 -80 -66 -144 -137 -144
-157 0 -6 -9 -13 -19 -17 -14 -4 -19 -13 -16 -33 2 -15 4 -30 4 -34 1 -5 8 -8
16 -8 31 0 13 -19 -32 -34 -60 -20 -57 -21 -49 17 3 17 3 27 -2 21 -4 -5 -35
-33 -70 -62 -56 -47 -60 -52 -37 -52 42 0 197 47 248 75 27 15 96 79 164 151
123 131 200 199 323 283 79 55 94 78 48 73 -31 -4 -37 12 -10 27 9 6 13 10 7
10 -5 0 -64 -28 -130 -62z"/>
<path d="M11893 5083 c-28 -11 2 -52 39 -53 17 0 58 36 58 52 0 9 -77 10 -97
1z"/>
<path d="M12085 5073 c-55 -4 -85 -15 -85 -33 0 -3 37 -7 83 -8 45 -1 102 -5
127 -9 25 -4 52 -7 60 -7 27 -1 22 -31 -7 -42 -25 -9 -20 -11 46 -18 159 -16
328 -58 451 -111 79 -34 85 -35 97 -19 17 23 16 37 -1 79 -16 38 -46 48 -46
15 0 -14 -7 -20 -21 -20 -15 0 -19 5 -14 19 7 22 -26 34 -63 24 -15 -3 -30 1
-43 13 -13 12 -32 17 -55 16 -31 -2 -35 0 -30 16 5 16 0 21 -25 26 -44 9 -49
8 -49 -8 0 -9 -7 -12 -20 -9 -11 3 -20 11 -20 19 0 19 -25 30 -100 43 -106 18
-135 18 -135 1 0 -21 -7 -24 -34 -17 -21 5 -22 8 -11 21 11 14 9 16 -16 14
-16 -1 -56 -3 -89 -5z"/>
<path d="M11885 4440 c-17 -7 -15 -9 13 -9 25 -1 37 -8 53 -33 16 -26 19 -28
14 -9 -6 19 -2 28 16 42 l24 19 -50 -1 c-27 0 -59 -4 -70 -9z"/>
<path d="M12495 4280 c-4 -6 -3 -16 3 -22 6 -6 12 -6 17 2 4 6 3 16 -3 22 -6
6 -12 6 -17 -2z"/>
<path d="M11815 4182 c-24 -20 -55 -67 -55 -82 0 -26 31 -5 59 40 17 28 31 52
31 55 0 10 -15 4 -35 -13z"/>
<path d="M12000 4161 c0 -5 5 -13 10 -16 6 -3 10 -2 10 4 0 5 -4 13 -10 16 -5
3 -10 2 -10 -4z"/>
<path d="M11917 4153 c-13 -12 -7 -33 8 -33 8 0 15 9 15 20 0 20 -11 26 -23
13z"/>
<path d="M11865 4120 c-3 -5 1 -10 9 -10 9 0 16 5 16 10 0 6 -4 10 -9 10 -6 0
-13 -4 -16 -10z"/>
<path d="M12016 4099 c-3 -18 -6 -42 -6 -55 0 -12 -7 -29 -15 -38 -19 -18 -19
-35 1 -61 15 -19 16 -19 29 -2 13 18 14 17 30 -10 l16 -28 -5 39 c-3 23 0 46
6 53 9 11 7 15 -8 19 -31 8 -44 37 -34 73 5 17 5 33 0 36 -4 2 -10 -9 -14 -26z"/>
<path d="M12082 4108 c-7 -7 -12 -26 -12 -44 0 -26 5 -33 26 -38 15 -4 29 -5
32 -1 3 3 1 5 -5 5 -6 0 -13 7 -16 14 -4 11 -1 13 11 9 9 -4 20 -11 25 -17 5
-7 10 -6 17 4 6 10 6 16 0 18 -6 2 -10 8 -10 13 0 6 5 7 10 4 15 -9 12 11 -3
24 -10 8 -17 7 -25 -1 -9 -9 -12 -8 -12 5 0 20 -21 22 -38 5z"/>
<path d="M11865 4083 c4 -10 7 -26 7 -36 -1 -12 5 -17 16 -15 24 5 27 37 5 53
-25 20 -37 18 -28 -2z"/>
<path d="M11905 4011 c-7 -22 3 -71 15 -71 11 0 11 78 0 85 -5 3 -11 -3 -15
-14z"/>
<path d="M12097 3994 c-3 -4 1 -13 9 -21 17 -18 29 -11 21 12 -7 16 -19 20
-30 9z"/>
<path d="M11936 3981 c-4 -5 -2 -12 3 -15 5 -4 12 -2 15 3 4 5 2 12 -3 15 -5
4 -12 2 -15 -3z"/>
<path d="M4342 3818 c-17 -18 -32 -27 -32 -20 0 6 -6 12 -14 12 -20 0 -32 -40
-15 -51 8 -4 14 -14 14 -21 0 -7 8 -14 18 -16 10 -2 17 3 17 12 0 9 -6 16 -12
16 -8 1 -5 8 7 18 11 10 33 33 49 50 40 43 11 43 -32 0z"/>
<path d="M4530 3810 c-13 -8 -12 -10 3 -10 9 0 17 5 17 10 0 12 -1 12 -20 0z"/>
<path d="M4115 3750 c3 -5 13 -10 21 -10 8 0 12 5 9 10 -3 6 -13 10 -21 10 -8
0 -12 -4 -9 -10z"/>
<path d="M4204 3719 c27 -11 54 -18 60 -16 11 4 -79 37 -98 36 -6 0 11 -9 38
-20z"/>
<path d="M4080 3671 c0 -27 5 -31 58 -47 31 -10 125 -42 207 -72 339 -122 490
-171 499 -162 15 15 29 12 23 -4 -4 -11 9 -20 46 -32 29 -9 67 -23 85 -32 30
-13 35 -13 49 1 8 8 13 20 9 25 -7 12 -153 70 -391 154 -93 33 -179 64 -190
69 -65 28 -360 129 -376 129 -14 0 -19 -7 -19 -29z m470 -147 l25 -15 -25 7
c-14 3 -32 10 -40 15 -13 7 -13 8 0 8 8 0 26 -6 40 -15z m71 -29 c19 -8 27
-14 19 -14 -14 0 -72 28 -59 29 4 0 22 -7 40 -15z"/>
<path d="M3880 3674 c0 -13 27 -31 58 -37 23 -5 32 -3 32 7 0 7 10 18 23 24
12 6 16 11 8 11 -8 1 -22 -6 -32 -15 -16 -15 -20 -15 -41 0 -22 16 -48 21 -48
10z"/>
<path d="M12126 3506 c-15 -24 -13 -56 5 -56 5 0 9 9 9 20 0 11 4 20 10 20 5
0 7 -7 4 -15 -4 -11 -2 -13 9 -10 10 4 17 -2 21 -20 4 -14 4 -30 1 -34 -2 -5
6 -11 20 -13 19 -4 26 1 35 23 12 28 7 49 -11 49 -5 0 -9 -7 -9 -16 0 -25 -20
-5 -37 37 -18 45 -34 49 -57 15z"/>
<path d="M12509 3282 c-87 -85 -110 -112 -103 -125 5 -8 39 -47 76 -85 74 -78
97 -83 124 -31 8 16 14 30 13 31 -1 2 4 22 10 45 22 82 32 194 19 235 -6 21
-15 38 -19 38 -4 0 -58 -49 -120 -108z"/>
<path d="M11860 3316 c0 -2 7 -9 15 -16 13 -11 14 -10 9 4 -5 14 -24 23 -24
12z"/>
<path d="M12071 3226 c-7 -8 -23 -17 -36 -20 -16 -4 -25 -13 -25 -26 0 -26 25
-26 47 0 10 11 30 20 46 20 25 0 27 2 17 20 -13 23 -33 26 -49 6z"/>
<path d="M11960 3188 c0 -2 6 -22 13 -46 13 -41 14 -42 30 -24 16 18 16 20
-13 45 -16 15 -30 26 -30 25z"/>
<path d="M12140 3065 c-8 -9 -8 -15 -2 -15 18 0 42 12 42 21 0 14 -26 10 -40
-6z"/>
<path d="M12140 3025 c-31 -10 -48 -11 -57 -3 -13 10 -14 9 -26 -32 -2 -10
-16 -15 -42 -15 -24 0 -40 -5 -43 -14 -4 -13 31 -13 109 2 27 5 108 51 114 64
5 16 2 15 -55 -2z"/>
<path d="M12490 2983 c-54 -6 -68 -12 -50 -23 8 -5 -22 -8 -77 -7 -71 1 -95
-2 -114 -16 -61 -44 -96 -64 -122 -71 -23 -5 -27 -10 -21 -28 5 -15 3 -20 -7
-16 -8 3 -25 9 -38 13 l-24 7 24 -25 c33 -34 197 -167 206 -167 18 1 54 40 47
51 -4 7 -2 10 7 7 18 -7 69 22 69 39 0 7 6 13 13 13 16 0 73 59 116 119 36 51
37 58 14 64 -11 3 -7 5 10 6 24 1 26 3 17 21 -6 11 -16 19 -23 18 -7 0 -28 -3
-47 -5z"/>
<path d="M12130 2955 c-10 -12 -10 -19 -2 -27 15 -15 48 14 38 31 -10 15 -21
14 -36 -4z"/>
<path d="M11945 2920 c-4 -7 -3 -16 3 -22 14 -14 45 -2 40 15 -6 16 -34 21
-43 7z"/>
<path d="M6010 2905 c0 -8 5 -15 10 -15 6 0 10 7 10 15 0 8 -4 15 -10 15 -5 0
-10 -7 -10 -15z"/>
<path d="M12060 2910 c0 -5 5 -10 10 -10 6 0 10 5 10 10 0 6 -4 10 -10 10 -5
0 -10 -4 -10 -10z"/>
<path d="M3568 2863 c7 -3 16 -2 19 1 4 3 -2 6 -13 5 -11 0 -14 -3 -6 -6z"/>
<path d="M3628 2853 c7 -3 16 -2 19 1 4 3 -2 6 -13 5 -11 0 -14 -3 -6 -6z"/>
<path d="M7057 2514 c-4 -4 -4 -11 -1 -15 6 -11 622 -12 784 -2 105 7 110 8
60 14 -71 9 -835 11 -843 3z"/>
<path d="M3742 2471 c-11 -7 -11 -9 1 -14 16 -6 27 0 27 15 0 10 -11 10 -28
-1z"/>
<path d="M4794 2445 c22 -17 40 -20 32 -6 -3 5 -16 11 -28 14 -22 6 -22 5 -4
-8z"/>
<path d="M6665 2360 c3 -5 32 -10 63 -10 41 0 53 3 42 10 -20 13 -113 13 -105
0z"/>
<path d="M4200 2251 c0 -6 5 -13 10 -16 6 -3 10 1 10 9 0 9 -4 16 -10 16 -5 0
-10 -4 -10 -9z"/>
<path d="M12160 2105 c0 -8 5 -15 10 -15 6 0 10 7 10 15 0 8 -4 15 -10 15 -5
0 -10 -7 -10 -15z"/>
</g>
</svg>
